<?xml version="1.0" encoding="UTF-8"?>
<svg id="marine" xmlns="http://www.w3.org/2000/svg" viewBox="0 0 1000 1000">
  <g id="hit">
    <path d="M470.74,960.11c-13.3-2.66-26.6-2.66-39.89-5.32-138.3-18.62-252.66-82.45-343.09-191.49-5.32-5.32-7.98-5.32-13.3-2.66-7.98,2.66-15.96,2.66-23.94,2.66s-15.96-5.32-15.96-13.3,5.32-13.3,15.96-13.3c7.98,0,15.96,0,23.94-2.66,23.94-7.98,37.23-23.94,42.55-47.87,2.66-10.64,7.98-15.96,15.96-13.3,7.98,2.66,13.3,10.64,10.64,21.28-5.32,23.94-15.96,37.23-37.23,58.51,5.32,5.32,7.98,10.64,13.3,15.96,63.83,71.81,143.62,122.34,234.04,148.94,2.66,0,5.32,2.66,7.98,0,74.47-23.94,130.32-66.49,159.57-140.96,5.32-15.96,10.64-34.57,18.62-50.53,5.32-10.64,10.64-18.62,15.96-26.6,26.6-39.89,66.49-53.19,111.7-45.21,42.55,5.32,71.81,47.87,77.13,85.11,2.66,29.26-2.66,58.51-15.96,85.11-13.3,26.6-29.26,50.53-47.87,71.81-2.66,2.66-5.32,5.32-5.32,7.98,85.11-31.91,156.91-82.45,212.77-151.6-18.62-13.3-31.91-31.91-37.23-55.85,0-2.66-2.66-5.32-2.66-7.98,0-7.98,5.32-13.3,10.64-13.3,7.98,0,13.3,2.66,15.96,10.64,2.66,5.32,2.66,10.64,5.32,15.96,10.64,23.94,26.6,37.23,53.19,39.89h10.64c7.98,0,13.3,7.98,13.3,13.3,0,7.98-5.32,13.3-13.3,13.3s-15.96,0-23.94-2.66c-5.32,0-7.98,0-10.64,2.66-82.45,101.06-188.83,164.89-319.15,188.83-18.62,2.66-37.23,5.32-58.51,7.98-2.66,0-5.32,0-7.98,2.66-13.3-7.98-34.57-7.98-53.19-7.98ZM414.89,922.87v2.66c26.6,2.66,55.85,2.66,82.45,5.32,2.66,0,7.98,0,7.98-2.66,18.62-15.96,37.23-34.57,53.19-53.19,45.21-53.19,71.81-117.02,90.43-183.51,2.66-5.32,2.66-10.64,2.66-15.96-29.26-2.66-53.19,7.98-71.81,29.26-13.3,15.96-21.28,37.23-26.6,58.51-21.28,71.81-66.49,125-132.98,156.91,0,0-2.66,2.66-5.32,2.66ZM550.53,928.19q2.66,0,0,0c15.96,0,31.91-2.66,47.87-5.32,15.96-2.66,29.26-7.98,39.89-21.28,23.94-26.6,45.21-53.19,63.83-85.11,13.3-26.6,23.94-53.19,18.62-82.45-2.66-23.94-15.96-42.55-37.23-55.85-23.94,95.74-61.17,180.85-132.98,250Z"/>
    <path d="M0,513.3c2.66-7.98,10.64-10.64,18.62-10.64h140.96c10.64,0,15.96,2.66,18.62,10.64,2.66,7.98-5.32,18.62-15.96,18.62H18.62C10.64,531.91,2.66,529.26,0,521.28c0-2.66,0-5.32,0-7.98Z"/>
    <path d="M1000,521.28c-2.66,7.98-10.64,10.64-18.62,10.64h-143.62c-7.98,0-13.3-7.98-13.3-13.3,0-7.98,5.32-13.3,13.3-13.3h143.62c7.98,0,15.96,2.66,18.62,10.64,0,0,0,2.66,0,5.32Z"/>
    <path d="M505.32,31.91c7.98,2.66,10.64,10.64,10.64,18.62v146.28c0,7.98-7.98,13.3-13.3,13.3-7.98,0-13.3-5.32-13.3-13.3V50.53c0-7.98,2.66-15.96,10.64-18.62,0,0,2.66,0,5.32,0Z"/>
    <path d="M962.77,348.4c0,7.98-5.32,13.3-13.3,15.96-37.23,10.64-77.13,21.28-114.36,31.91-7.98,2.66-18.62,5.32-26.6,7.98-7.98,2.66-15.96-2.66-18.62-10.64-2.66-7.98,2.66-15.96,10.64-18.62,47.87-13.3,95.74-26.6,143.62-37.23,10.64-5.32,18.62,2.66,18.62,10.64Z"/>
    <path d="M739.36,303.19c-10.64,0-18.62-10.64-15.96-21.28,0-2.66,2.66-5.32,5.32-7.98,34.57-34.57,66.49-66.49,101.06-101.06,10.64-10.64,23.94-7.98,26.6,5.32,2.66,5.32,0,10.64-5.32,15.96-34.57,34.57-66.49,66.49-101.06,101.06,0,0-2.66,2.66-5.32,2.66-2.66,5.32-5.32,5.32-5.32,5.32Z"/>
    <path d="M143.62,183.51c2.66-5.32,5.32-10.64,7.98-13.3,5.32-2.66,10.64,0,13.3,0s2.66,2.66,5.32,5.32c34.57,31.91,66.49,66.49,98.4,98.4l5.32,5.32c2.66,5.32,2.66,13.3-2.66,18.62-5.32,5.32-10.64,5.32-18.62,2.66-2.66,0-2.66-2.66-5.32-2.66-34.57-34.57-66.49-66.49-101.06-101.06,0-5.32,0-7.98-2.66-13.3Z"/>
    <path d="M215.43,377.66c0,10.64-7.98,15.96-21.28,13.3-31.91-7.98-63.83-18.62-98.4-26.6-13.3-2.66-29.26-7.98-42.55-10.64-10.64-2.66-13.3-10.64-10.64-18.62s10.64-13.3,18.62-10.64c47.87,13.3,93.09,23.94,140.96,37.23,7.98,2.66,13.3,7.98,13.3,15.96Z"/>
    <path d="M377.66,220.74c0,7.98-2.66,13.3-10.64,15.96-5.32,2.66-13.3,0-15.96-5.32-2.66-2.66-2.66-5.32-2.66-5.32-18.62-42.55-34.57-87.77-53.19-130.32-2.66-5.32-2.66-10.64,0-15.96,2.66-2.66,7.98-5.32,13.3-7.98,5.32,0,10.64,5.32,13.3,10.64,7.98,21.28,15.96,39.89,23.94,61.17,10.64,23.94,18.62,47.87,29.26,71.81,2.66,2.66,2.66,5.32,2.66,5.32Z"/>
    <path d="M691.49,71.81c10.64,0,18.62,10.64,13.3,18.62-5.32,13.3-10.64,26.6-15.96,39.89-10.64,31.91-23.94,63.83-37.23,95.74-2.66,7.98-7.98,10.64-15.96,10.64-5.32,0-10.64-2.66-13.3-10.64v-10.64c18.62-45.21,34.57-90.43,53.19-135.64,5.32-5.32,10.64-7.98,15.96-7.98Z"/>
  </g>
</svg>