<?xml version="1.0" encoding="UTF-8"?>
<svg id="marine" xmlns="http://www.w3.org/2000/svg" viewBox="0 0 1000 1000">
  <g id="marine-2" data-name="marine">
    <path d="M859.67,589.48c-66.15,0-171.99-24.57-213.57-45.36-102.06-47.25-136.08-122.85-98.28-217.35,17.01-39.69,41.58-66.15,73.71-73.71,51.03-15.12,105.84,15.12,134.19,35.91,52.92,37.8,190.89,226.8,162.54,283.5-5.67,13.23-28.35,17.01-58.59,17.01ZM649.88,279.53c-7.56,0-13.23,0-20.79,1.89-22.68,5.67-41.58,26.46-54.81,56.7-32.13,79.38-5.67,137.97,83.16,179.55,73.71,34.02,209.79,49.14,232.47,39.69,11.34-35.91-100.17-206.01-153.09-243.81-15.12-11.34-51.03-34.02-86.94-34.02ZM891.8,559.25h0Z"/>
    <path d="M459,536.57c-58.59,0-81.27-49.14-100.17-105.84-28.35-83.16-22.68-181.44,13.23-238.14,37.8-60.48,83.16-39.69,136.08-15.12,7.56,3.78,13.23,5.67,20.79,9.45,39.69,17.01,77.49,35.91,102.06,49.14,11.34,5.67,22.68,11.34,26.46,13.23,7.56,1.89,11.34,7.56,11.34,15.12s-7.56,15.12-15.12,15.12c-5.67,0-9.45-1.89-37.8-17.01-24.57-13.23-60.48-30.24-100.17-49.14-7.56-3.78-15.12-7.56-22.68-9.45-56.7-26.46-75.6-32.13-96.39,3.78-30.24,49.14-34.02,137.97-9.45,211.68,26.46,75.6,45.36,92.61,92.61,83.16,60.48-13.23,105.84-26.46,105.84-26.46,7.56-1.89,17.01,1.89,18.9,9.45s-1.89,17.01-9.45,18.9c-1.89,0-45.36,13.23-107.73,26.46-9.45,3.78-18.9,5.67-28.35,5.67Z"/>
    <path d="M305.91,563.03c-34.02,0-60.48-28.35-69.93-45.36-3.78-5.67-69.93-124.74-81.27-185.22-3.78-22.68,0-39.69,11.34-54.81,17.01-22.68,47.25-28.35,49.14-28.35l145.53-28.35c7.56-1.89,17.01,3.78,17.01,11.34,1.89,7.56-3.78,17.01-11.34,17.01l-147.42,28.35c-1.89,0-18.9,3.78-28.35,15.12-7.56,11.34-7.56,20.79-5.67,35.91,9.45,54.81,75.6,173.88,77.49,175.77,0,1.89,22.68,39.69,56.7,28.35,41.58-13.23,68.04-37.8,68.04-39.69,5.67-5.67,15.12-5.67,20.79,0,5.67,5.67,5.67,15.12,0,20.79-1.89,1.89-30.24,30.24-79.38,45.36-9.45,3.78-15.12,3.78-22.68,3.78Z"/>
    <path d="M228.42,615.94c-15.12,0-28.35-5.67-35.91-9.45-3.78-1.89-88.83-52.92-117.18-85.05-13.23-17.01-15.12-32.13-15.12-41.58,1.89-22.68,18.9-35.91,20.79-37.8l90.72-75.6c5.67-5.67,15.12-3.78,20.79,1.89,5.67,5.67,3.78,15.12-1.89,20.79l-90.72,75.6s-9.45,7.56-9.45,17.01c0,5.67,1.89,11.34,7.56,18.9,20.79,24.57,86.94,66.15,109.62,79.38,0,0,26.46,13.23,39.69-1.89,17.01-20.79,20.79-32.13,20.79-32.13,1.89-7.56,9.45-13.23,17.01-13.23,7.56,1.89,13.23,7.56,13.23,17.01,0,3.78-3.78,20.79-26.46,49.14-13.23,13.23-28.35,17.01-43.47,17.01Z"/>
    <path d="M65.88,829.51c-5.67,0-9.45,0-15.12-1.89-22.68-5.67-37.8-15.12-45.36-30.24-15.12-30.24,3.78-71.82,28.35-122.85,20.79-43.47,43.47-94.5,49.14-145.53,0-7.56,7.56-15.12,17.01-13.23,7.56,0,15.12,7.56,13.23,17.01-5.67,56.7-30.24,107.73-51.03,154.98-18.9,41.58-35.91,79.38-28.35,98.28,1.89,0,5.67,7.56,24.57,11.34,9.45,1.89,15.12,0,15.12-1.89,11.34-7.56,17.01-30.24,20.79-52.92,7.56-35.91,17.01-79.38,60.48-77.49,20.79,1.89,30.24,22.68,41.58,47.25,9.45,18.9,20.79,41.58,32.13,45.36,1.89,0,5.67,1.89,15.12-3.78,9.45-5.67,9.45-9.45,9.45-11.34,1.89-11.34-15.12-34.02-30.24-54.81-22.68-28.35-51.03-62.37-47.25-100.17,0-7.56,7.56-15.12,17.01-13.23,7.56,0,15.12,7.56,13.23,17.01-1.89,26.46,20.79,54.81,41.58,81.27,20.79,28.35,41.58,52.92,35.91,79.38-1.89,13.23-11.34,22.68-24.57,30.24-13.23,7.56-26.46,9.45-37.8,5.67-24.57-7.56-37.8-35.91-51.03-60.48-5.67-11.34-13.23-28.35-17.01-30.24-13.23,0-18.9,15.12-28.35,52.92-5.67,28.35-13.23,58.59-34.02,71.82-7.56,5.67-15.12,7.56-24.57,7.56Z"/>
    <circle cx="702.8" cy="394.82" r="24.57"/>
    <path d="M874.79,530.9c-49.14,0-85.05-18.9-86.94-18.9-7.56-3.78-11.34-13.23-7.56-20.79,3.78-7.56,13.23-11.34,20.79-7.56,3.78,1.89,100.17,49.14,173.88-28.35,5.67-5.67,15.12-5.67,20.79,0,5.67,5.67,5.67,15.12,0,20.79-37.8,43.47-83.16,54.81-120.96,54.81Z"/>
    <path d="M511.92,589.48c-3.78,0-7.56-1.89-11.34-3.78-56.7-56.7-39.69-115.29-22.68-137.97,5.67-7.56,15.12-7.56,20.79-3.78,7.56,5.67,7.56,15.12,3.78,20.79-1.89,1.89-32.13,47.25,18.9,98.28,5.67,5.67,5.67,15.12,0,20.79-1.89,3.78-5.67,5.67-9.45,5.67Z"/>
    <path d="M423.09,640.51c-3.78,0-7.56-1.89-11.34-3.78-56.7-56.7-39.69-115.29-22.68-137.97,5.67-7.56,15.12-7.56,20.79-3.78,7.56,5.67,7.56,15.12,3.78,20.79-1.89,1.89-32.13,47.25,18.9,98.28,5.67,5.67,5.67,15.12,0,20.79-1.89,3.78-5.67,5.67-9.45,5.67Z"/>
  </g>
</svg>