<?xml version="1.0" encoding="UTF-8"?>
<svg id="marine" xmlns="http://www.w3.org/2000/svg" viewBox="0 0 1000 1000">
  <defs>
    <style>
      .cls-1 {
        fill: #d35746;
      }

      .cls-2 {
        fill: #fff;
      }
    </style>
  </defs>
  <g id="meat">
    <path class="cls-1" d="M917.39,248.06c-78.57-101.68-221.84-152.51-221.84-152.51,0,0-106.3-110.92-196.42,60.08-18.49,34.66-30.04,64.7-34.66,92.43,0-6.93,0-13.86,2.31-20.8,6.93-80.88-39.28-43.91-53.15-16.18,0,0-101.68,177.93-122.47,235.7-20.8,57.77,6.93,152.51-27.73,182.55-34.66,30.04-60.08,60.08-101.68,90.12-41.59,30.04-92.43-6.93-122.47,23.11-30.04,30.04-2.31,80.88,20.8,97.05,23.11,16.18,13.86,90.12,69.32,90.12s53.15-71.63,69.32-108.61c18.49-36.97,106.3-78.57,150.2-110.92,43.91-32.35,122.47,43.91,194.11,41.59,71.63-2.31,157.13,20.8,219.53-18.49,46.22-27.73,27.73-32.35-2.31-41.59,39.28,6.93,78.57,2.31,110.92-16.18,122.47-71.63,124.78-328.13,46.22-427.5ZM501.44,439.85c-11.55-20.8-18.49-41.59-23.11-60.08,6.93,20.8,16.18,39.28,23.11,60.08Z"/>
    <path class="cls-2" d="M672.44,250.37c32.35-23.11,90.12-11.55,145.58,73.95,55.46,87.81,18.49,161.76-48.53,175.62-69.32,13.86-212.59-171-97.05-249.57Z"/>
    <path class="cls-2" d="M224.15,684.8s-32.35,39.28-108.61,48.53c-76.26,9.24-103.99,23.11-90.12,69.32,13.86,46.22,43.91,30.04,48.53,80.88,2.31,50.84,69.32,60.08,92.43,32.35,23.11-27.73,30.04-103.99,62.39-122.47,34.66-16.18,48.53-48.53,23.11-71.63-25.42-23.11-27.73-36.97-27.73-36.97Z"/>
    <path d="M792.92,709.54c-10.83,0-21.89-1.12-33.13-3.35-121.58-24.2-233.46-169.01-270.81-259.27-57.13-138.06-62.16-314.89,61.75-377.04,84.4-44.77,229.86,8.45,338.52,123.91,116.34,123.63,159.13,323.77,15.8,467.11-32.15,32.13-70.43,48.63-112.13,48.63ZM620.54,91.14c-20.48,0-38.39,3.88-52.64,11.49-.15.07-.28.15-.43.21-98.38,49.19-96.78,203.22-44.33,329.96,35.65,86.16,140.23,216.5,243.86,237.13,42.47,8.47,80.09-3.37,111.9-35.17,126.68-126.68,87.56-304.97-16.58-415.62-82.02-87.14-175.35-128-241.79-128ZM559.21,86.31h.23-.23Z"/>
    <path d="M761.62,518.67c-2.97,0-5.78-.19-8.41-.53-55.76-7.1-101.91-81.23-118.53-119.44-25.44-58.54-27.18-135.04,29.16-164.69.11-.06.23-.11.35-.18,38.98-19.46,117.23,18.39,148.89,52.49,53.9,59.58,56.91,135.94,8.04,199.48-20.51,26.26-42.5,32.88-59.51,32.88ZM680.86,266.83c-33.33,17.76-31.22,73.56-12.26,117.13,15.98,36.77,55.41,93.19,89.28,97.5,4.45.63,17.92,2.3,34.02-18.32,37.74-49.07,35.51-105.87-6.07-151.84-27.73-29.86-87.87-52.65-104.97-44.47Z"/>
    <path d="M620.96,782.47c-93.32,0-172.25-35.52-217.22-55.75-11.92-5.36-25.42-11.44-29.39-12.02-8.2.23-38.94,21.08-63.76,43.81-2.7,2.47-6.07,4.08-9.68,4.64-4.31.62-42.65,4.98-75.96-44.99-25.49-42.45-14.41-70.19-13.07-73.22,1.66-3.75,4.56-6.85,8.17-8.79,15-8.07,56.89-37.14,52.84-64.16l-1.57-14.04c-5.4-47.02-12.81-111.41,35.12-226.87,52.31-118.9,205.06-236.09,211.54-241.02,8.1-6.16,19.73-4.6,25.89,3.51,6.18,8.12,4.61,19.72-3.5,25.91-1.51,1.16-151.66,116.38-199.94,226.14-44.11,106.23-37.34,165.12-32.38,208.11l1.5,13.69c7.22,48-43.77,84.34-64.43,96.93-.19,5.88,1.14,17.52,11.05,34.04,14.14,21.17,28.08,26.48,35.09,27.77,21.04-18.62,61.74-50.98,87.23-48.2,9.64,1.2,21.22,6.41,40.42,15.04,79.84,35.94,246.01,110.68,412.76-27.08,7.85-6.5,19.52-5.39,26.02,2.48,6.5,7.86,5.39,19.52-2.48,26.02-80.63,66.62-161.79,88.03-234.25,88.04Z"/>
    <path d="M127.09,945.92c-42.76,0-76.25-33.49-76.25-76.25,0-3.52.39-7.1,1.18-10.72C21.49,849.04,0,820.73,0,786.48,0,743.71,33.49,710.22,76.25,710.22c12.25,0,21.52,3.09,28.96,5.57.79.24,18.4,5.35,43.97-11.71,33.43-22.28,58.39-42.63,58.64-42.83,7.9-6.48,19.53-5.3,26.01,2.61,6.47,7.9,5.3,19.54-2.61,26.01-1.06.87-26.52,21.64-61.53,44.97-41.25,27.52-73.14,17.15-76.66,15.86-5.69-1.9-10.54-3.52-16.79-3.52-22.02,0-39.29,17.26-39.29,39.29s17.26,39.29,39.29,39.29h2.31c6.82,0,13.09,3.75,16.3,9.76s2.85,13.31-.93,18.99c-3.9,5.83-6.14,11.35-6.14,15.15,0,22.02,17.26,39.29,39.29,39.29s39.29-15.55,39.29-36.98c-.26-3.85-2.04-47.84,24.69-71.59,19.64-19.7,55.96-51.61,74.2-67.24,7.75-6.66,19.43-5.73,26.06,2.01,6.65,7.75,5.74,19.42-2.01,26.06-17.83,15.29-53.26,46.4-72.9,66.05-12.15,10.84-13.52,35.75-13.1,43.68.02,43.18-32.76,74.97-76.23,74.97Z"/>
    <path d="M695.55,770.3c-10.22,0-156.24-50.33-244.65-198.49-5.24-8.77-2.37-20.12,6.4-25.35,8.76-5.25,20.12-2.38,25.35,6.4,81.08,135.87,208.94,178.56,215.95,180.73,8.76,1.44,15.44,9.06,15.44,18.23,0,10.21-8.27,18.48-18.48,18.48Z"/>
    <path d="M503.74,765.68c-3.69,0-7.41-1.11-10.65-3.38-52.79-37.27-95.76-83.5-127.7-137.4-5.21-8.78-2.31-20.12,6.48-25.32,8.78-5.21,20.12-2.32,25.32,6.48,29.28,49.38,68.71,91.79,117.23,126.02,8.34,5.89,10.32,17.43,4.45,25.77-3.61,5.1-9.32,7.83-15.12,7.83Z"/>
  </g>
</svg>