<?xml version="1.0" encoding="UTF-8"?>
<svg id="marine" xmlns="http://www.w3.org/2000/svg" viewBox="0 0 1000 1000">
  <defs>
    <style>
      .cls-1 {
        fill: #f99;
        stroke: #000;
        stroke-linecap: round;
        stroke-linejoin: round;
        stroke-width: 1.6px;
      }
    </style>
  </defs>
  <g id="new">
    <path class="cls-1" d="M968.1,472.19c15.87-37.02,7.93-79.34-18.51-108.43-13.22-13.22-18.51-31.74-18.51-50.25,0-39.67-21.16-76.69-55.54-95.21-15.87-7.93-29.09-23.8-34.38-42.31-13.22-37.02-44.96-66.12-84.63-71.4-18.51-2.64-34.38-13.22-47.6-26.45-23.8-31.74-63.47-44.96-103.14-37.02-18.51,2.64-37.02,0-52.89-10.58h0c-34.38-21.16-76.69-21.16-108.43,0-15.87,10.58-34.38,13.22-52.89,10.58-39.67-7.93-79.34,5.29-103.14,37.02-10.58,15.87-29.09,23.8-47.6,26.45-37.02,5.29-68.76,34.38-81.98,71.4-5.29,18.51-18.51,31.74-34.38,39.67-34.38,18.51-55.54,55.54-55.54,95.21,0,18.51-5.29,37.02-18.51,50.25-26.45,29.09-34.38,71.4-18.51,108.43,7.93,18.51,7.93,37.02,0,52.89-15.87,37.02-7.93,79.34,18.51,108.43,13.22,13.22,18.51,31.74,18.51,50.25,0,39.67,21.16,76.69,55.54,95.21,15.87,7.93,29.09,23.8,34.38,42.31,13.22,37.02,44.96,66.12,84.63,71.4,18.51,2.64,34.38,13.22,47.6,26.45,23.8,31.74,63.47,44.96,103.14,37.02,18.51-2.64,37.02,0,52.89,10.58,15.87,10.58,37.02,15.87,55.54,15.87s37.02-5.29,55.54-15.87c15.87-10.58,34.38-13.22,52.89-10.58,39.67,7.93,79.34-5.29,103.14-37.02,10.58-15.87,29.09-23.8,47.6-26.45,39.67-5.29,71.4-34.38,84.63-71.4,5.29-18.51,18.51-31.74,34.38-42.31,34.38-18.51,55.54-55.54,55.54-95.21,0-18.51,5.29-37.02,18.51-50.25,26.45-29.09,34.38-71.4,18.51-108.43-10.58-13.22-10.58-31.74-5.29-50.25Z"/>
    <g>
      <path d="M280.5,480.12v129.59h-34.38v-222.15h31.74l26.45,66.12c2.64,5.29,5.29,10.58,5.29,15.87,2.64,5.29,5.29,10.58,7.93,15.87l10.58,31.74h0v-126.94h34.38v222.15h-29.09l-26.45-66.12c-5.29-10.58-7.93-21.16-13.22-31.74s-7.93-23.8-13.22-34.38h0Z"/>
      <path d="M425.95,609.71v-222.15h97.85v31.74h-63.47v60.83h55.54v31.74h-55.54v63.47h63.47v31.74h-97.85v2.64Z"/>
      <path d="M719.5,609.71h-34.38l-18.51-95.21c0-5.29-2.64-13.22-2.64-18.51s-2.64-13.22-2.64-18.51h0l-7.93,37.02c-2.64,15.87-5.29,31.74-7.93,47.6-2.64,15.87-5.29,31.74-7.93,47.6h-34.38l-31.74-222.15h37.02c2.64,13.22,2.64,26.45,5.29,42.31,2.64,13.22,2.64,26.45,5.29,42.31v10.58c0,5.29,0,10.58,2.64,18.51,0,5.29,0,13.22,2.64,18.51s0,10.58,0,10.58h0c2.64-7.93,2.64-15.87,5.29-23.8,2.64-7.93,2.64-15.87,2.64-23.8l15.87-92.56h29.09l15.87,92.56c0,7.93,2.64,15.87,2.64,23.8,2.64,7.93,2.64,15.87,5.29,23.8h0l5.29-50.25,7.93-92.56h37.02l-31.74,222.15Z"/>
    </g>
    <path d="M500,1003.76c-23.89,0-49.04-7.26-67.28-19.45-10.38-6.92-23.2-9.4-38.13-7.21-46.86,9.4-93.84-7.39-122.09-43.98-11.58-11.31-23.23-17.87-34.65-19.5-46.01-6.15-84.99-38.82-101.58-85.25-4-13.84-13-25.03-23.9-30.48-41.7-22.44-67.24-66.09-67.24-114.15,0-10.49-2.14-25.1-12.32-35.28C-.26,612.11-9.02,560.69,9.81,516.74c6.99-14.05,3.81-27.34,0-36.22-18.84-43.94-10.09-95.36,22.31-130.99,10.86-10.9,13-25.53,13-36.01,0-48.06,25.54-91.68,66.66-113.83,9.04-4.53,19.99-12.58,24.06-26.85,16.68-46.82,55.51-80.28,99.34-86.56,8.88-1.27,24.96-5.18,33.01-17.24,28.8-38.46,76.51-55.66,124.88-46.04,13.73,1.92,26.6-.5,37.01-7.43,38.47-25.65,89.99-25.8,131.25-.43,11.05,7.35,23.81,9.75,38.82,7.66,46.67-9.31,93.8,7.36,122.06,43.97,11.6,11.31,23.24,17.87,34.66,19.5,46,6.13,84.97,38.8,101.55,85.24,4.03,13.86,13.04,25.05,23.94,30.51,41.68,22.42,67.23,66.04,67.23,114.13,0,10.47,2.14,25.1,12.32,35.28,32.75,35.98,41.66,86.71,23.58,130.37-2.22,8.26-4.57,22.11,1.78,30.05,1.19,1.49,2.17,3.12,2.92,4.87,18.85,43.96,10.1,95.38-22.29,131.02-10.87,10.92-13.02,25.54-13.02,36,0,48.09-25.54,91.71-66.68,113.84-12.65,8.55-20.84,18.26-24.04,29.49-16.99,47.73-55.99,80.4-102.19,86.57-8.68,1.24-24.74,5.17-32.8,17.23-28.77,38.43-76.24,55.71-124.87,46.02-13.74-1.83-26.58.52-37.01,7.44-22.88,13.15-45.12,19.42-67.28,19.42ZM404.59,934.14c19.36,0,36.78,5.11,51.6,14.98,11.4,7.62,28.18,12.35,43.8,12.35s29.65-4.29,45.04-13.09c17.87-11.96,41.27-16.68,66.4-13.15,33.52,6.71,64.95-4.42,83.19-28.77,12.09-18.16,34.19-30.81,61.54-34.71,30.6-4.08,56.48-26.14,67.69-57.57,5.66-19.89,19.71-37.58,42.59-52.81,29.11-15.75,46.13-45.12,46.13-77.61,0-26.11,8.78-49.25,24.72-65.19,20.04-22.11,26.03-54.67,14.9-82.95-12.19-17.15-14.64-40.1-7.08-66.59.26-.85.54-1.69.9-2.51,12.32-28.77,6.53-62.47-14.72-85.87-15.24-15.21-24.02-38.37-24.02-64.48,0-32.49-17.02-61.84-44.4-76.58-20.95-10.46-37.86-31.19-44.73-55.14-10.8-30.14-36.67-52.2-67.05-56.25-21.2-3.02-41.27-13.93-59.79-32.45-.72-.71-1.37-1.47-1.96-2.27-18.26-24.33-49.72-35.54-82.05-28.96-26.39,3.72-49.74-1.02-68.8-13.73-26.59-16.36-60.2-16.49-84.94,0-19.06,12.69-42.43,17.52-67.63,13.92-33.54-6.68-64.97,4.43-83.21,28.77-12.07,18.14-34.17,30.8-61.56,34.7-28.03,4-54.17,27.14-65.04,57.58-6.06,21.38-22.13,40.13-44.85,51.48-26.82,14.45-43.84,43.8-43.84,76.28,0,26.12-8.77,49.28-24.69,65.21-20.58,22.66-26.37,56.37-14.04,85.12,10.36,24.19,10.18,49.29-.53,70.67-11.79,27.63-6.02,61.36,15.26,84.76,15.22,15.21,23.99,38.35,23.99,64.46,0,32.49,17.02,61.83,44.42,76.6,20.93,10.43,37.85,31.17,44.69,55.11,10.8,30.14,36.66,52.2,67.08,56.25,21.18,3.02,41.22,13.92,59.76,32.46.7.7,1.36,1.45,1.96,2.25,18.27,24.35,49.73,35.46,82.08,29,5.86-.85,11.6-1.29,17.16-1.29Z"/>
  </g>
</svg>