<?xml version="1.0" encoding="UTF-8"?>
<svg id="marine" xmlns="http://www.w3.org/2000/svg" viewBox="0 0 1000 1000">
  <g id="no-vegetarian">
    <path d="M517.67,948.31c-56.86.03-90.37-22.95-108.14-41.47-21.87,15.17-60.01,34.03-108.89,28.43-59.28-6.83-85.65-49.08-95.95-72.92-36.85-5.62-92.49-30.02-115.2-96.09-32.74-101.15,34.92-158.49,37.82-160.89,9.75-8.06,24.2-6.69,32.26,3.08,8.03,9.74,6.7,24.09-2.95,32.18-2.22,1.9-46.34,40.99-23.64,111.14,22.18,64.5,85.76,66.06,88.46,66.09,10.49.14,19.7,7.36,22.15,17.57.48,1.82,12.98,48.6,62.3,54.28,53.84,6.41,89.46-29.94,90.95-31.48,5.22-5.4,12.82-7.97,20.23-6.74,7.42,1.23,13.82,5.93,17.04,12.73.71,1.34,21.63,40.43,88.74,38.17,67.8-2.04,93.54-64.75,94.61-67.41,4.37-10.91,16.29-16.82,27.53-13.71.42.11,52.89,13.74,88.76-18.1,31.68-26.13,21.74-64.78,21.32-66.4-2.55-9.51,1.2-19.78,9.4-25.21,2.01-1.34,200.91-136.3,181.94-339.96-1.18-12.61,8.11-23.77,20.71-24.95,12.84-1.3,23.76,8.09,24.96,20.69,18.83,202.27-142.99,338.59-190,373.68,2.27,23.03-.03,65.25-38.53,96.96-38.17,33.94-85.93,34.05-111.95,30.95-15.73,27.25-54.34,77.09-127.36,79.3-2.22.06-4.42.08-6.58.08Z"/>
    <path d="M392.82,758.28c-15.07,0-31.33-2.52-48.55-8.62-59.01-20.93-83.22-57.53-93.07-81.96-24.85,3.64-65.95,5.2-104.2-13.91-46.24-25.44-63.08-71.49-68.77-94.13-31.05-16.54-74.07-58.37-71.97-131.95,2.1-73.14,39.9-106.48,63.9-120.32-2.06-19.52-1.26-50.1,17.01-76.49,18.61-26.89,49.46-36.08,70.79-39.16,5.18-49.64,36.91-120.22,134.3-134.42,90.62-13.32,143.01,30.54,166.65,69.03,14.42-7.04,34.85-14,60.8-15.45,48.35-2.7,68.08,5.06,73,7.5,9.93,4.95,14.89,16.31,11.75,26.96-1.54,5.34-36.82,133.05,69.53,199.54,111.26,69.52,282.08-.94,283.79-1.69,8.06-3.41,17.43-1.89,24.01,3.9,6.6,5.78,9.32,14.82,7,23.28-54.31,198.31-256.96,266.47-313.09,281.78-6.63,20.37-24.2,54.37-69.7,71.72-48.27,16.76-91.51,4.9-113.97-4.25-17.8,15.11-52.97,38.64-99.22,38.64ZM267.35,618.09c4.56,0,9.08,1.34,12.91,3.95,5.69,3.89,9.39,10.1,9.98,16.96.18,1.51,6.03,44.99,69.37,67.46,63.36,22.41,109.04-27.34,110.96-29.46,7.32-8.17,19.5-10.1,28.92-4.45.31.22,43.29,24.82,90.83,8.25,38.61-14.72,43.48-48.74,43.65-50.17,1.26-9.63,8.48-17.71,17.94-19.76,2.21-.48,203.54-45.92,277.19-209.49-65.23,18.83-186.13,40.67-279.37-17.61-95.36-59.59-104.99-163.64-94.66-226.99-7.83-.62-18.58-.92-32.79-.1-36.68,2.04-56.98,19.2-57.84,19.92-5.82,5.04-13.89,6.91-21.32,4.77-7.42-2.1-13.36-7.71-15.68-15.07-2.63-7.9-28.88-78.05-128.53-63.63-98.17,14.33-96.24,99.46-95.7,109.11.36,6.49-2.03,12.9-6.62,17.52-4.59,4.59-10.83,7.23-17.4,6.79-10.56-.14-41.51,2.46-54.3,20.9-16.34,23.6-7.15,57.1-7.07,57.43,1.65,5.86.92,12.2-2.06,17.5-2.97,5.32-7.92,9.28-13.78,10.93-1.68.52-47.85,15.63-49.86,86.17-2.03,71.09,51.84,92.21,54.13,93.08,7.96,2.99,13.79,10.24,14.86,18.66.06.42,7.22,50.42,47.22,72.42,41.29,20.62,91.99,5.99,92.49,5.85,2.14-.64,4.35-.95,6.55-.95Z"/>
    <path d="M642.2,507.1c-57.05,0-123.3-5.81-199.76-20.34-97.21-16.66-180.34-99.71-205.78-150.58-5.67-11.32-1.08-25.1,10.24-30.75,11.3-5.64,25.1-1.09,30.75,10.24,18.38,36.74,87.97,111.42,172.94,125.97,344.33,65.49,464.9-55.89,466.11-57.12,8.67-9.14,23.2-9.54,32.32-.97,9.18,8.62,9.77,22.95,1.23,32.19-4.28,4.63-87.5,91.36-308.05,91.36Z"/>
    <path d="M256.5,437.86c-34.29,0-54.09-11-57.24-12.89-10.86-6.52-14.37-20.59-7.86-31.45,6.44-10.73,20.29-14.34,31.13-8.04,1.87.99,32.23,16.5,88.14-4.21,11.92-4.42,25.07,1.65,29.45,13.53,4.41,11.86-1.65,25.06-13.53,29.45-27.58,10.21-51.07,13.61-70.09,13.61Z"/>
    <path d="M377.57,587.48c-8.44,0-13.75-.42-14.77-.5-12.59-1.06-21.92-12.12-20.87-24.74,1.04-12.56,11.93-22.3,24.71-20.93,1.11.03,108.51,7.83,161.44-64.95,7.43-10.2,21.73-12.54,32.03-5.05,10.24,7.44,12.51,21.78,5.06,32.03-55.53,76.33-150.92,84.14-187.59,84.14Z"/>
    <path d="M436.45,484.59c-5.18,0-10.38-1.73-14.66-5.3-86.48-72.08-62.58-189.1-61.52-194.04,2.66-12.38,14.98-20.27,27.21-17.61,12.37,2.64,20.24,14.8,17.63,27.16-.31,1.53-18.72,95.31,46.03,149.27,9.72,8.11,11.04,22.57,2.94,32.29-4.53,5.44-11.05,8.24-17.63,8.24Z"/>
    <path d="M623.45,505.1c-2.32,0-4.7-.36-7.05-1.12-93.6-30.19-97.68-112.26-97.81-115.75-.48-12.65,9.4-23.28,22.06-23.74,11.58-.6,23.17,9.26,23.73,21.85.14,2.34,3.86,53.92,66.09,74.01,12.06,3.89,18.69,16.8,14.8,28.85-3.13,9.71-12.14,15.89-21.83,15.89Z"/>
    <path d="M22.92,999.99c-5.86,0-11.74-2.24-16.22-6.72-8.94-8.95-8.94-23.45,0-32.4L960.88,6.71c8.95-8.93,23.45-8.93,32.4,0,8.95,8.95,8.95,23.48,0,32.43L39.14,993.27c-4.48,4.48-10.35,6.72-16.22,6.72Z"/>
  </g>
</svg>