<?xml version="1.0" encoding="UTF-8"?>
<svg id="marine" xmlns="http://www.w3.org/2000/svg" viewBox="0 0 1000 1000">
  <g id="spicy">
    <path d="M81.23,950.18c-42.47,0-68.12-11.27-77.75-34.03-11.79-27.84,8.15-58.8,33.14-77.12,9.96-7.31,101.19-78.59,238.29-330.99,113.99-209.82,186.3-298.44,189.32-302.12,7.31-8.87,20.38-10.13,29.25-2.83,8.87,7.3,10.15,20.39,2.85,29.26-.71.88-73.12,89.82-184.88,295.54-138.49,254.96-232.76,331.83-250.24,344.67-15.39,11.27-20.68,24.49-19.45,27.38.09.2,12.95,17.31,97.23,2.92,148.11-22.23,511.54-196.49,650.71-436.87,5.74-9.94,18.45-13.37,28.4-7.57,9.95,5.75,13.35,18.47,7.59,28.41-147.79,255.28-521.34,433.27-680.14,457.1-24.59,4.16-46.02,6.27-64.32,6.27Z"/>
    <path d="M48.93,910.37c-7.63,0-14.96-4.21-18.6-11.5-5.14-10.25-.98-22.74,9.29-27.89,92.85-46.44,160.01-94.02,217.77-154.32,7.97-8.27,21.13-8.58,29.39-.63,8.3,7.94,8.58,21.11.63,29.41-61.2,63.87-131.88,114.07-229.19,162.74-2.98,1.47-6.15,2.18-9.29,2.18Z"/>
    <path d="M332.15,673.88c-4.34,0-8.72-1.34-12.46-4.16-9.19-6.88-11.05-19.92-4.16-29.11,23-30.66,41.3-64.94,60.66-101.25,44.3-85.98,95.62-155.57,97.78-158.49,6.85-9.24,19.86-11.15,29.08-4.34,9.22,6.84,11.17,19.86,4.34,29.08-.51.69-51.54,69.93-94.36,153.06-20.29,38.01-39.32,73.69-64.23,106.91-4.09,5.43-10.33,8.3-16.65,8.3Z"/>
    <path d="M812.9,538.75c-1.78,0-3.58-.23-5.35-.69-8.55-2.28-14.72-9.72-15.38-18.55-.05-.69-5.28-68.66-22.53-125.41-9.14-31.95-19.06-51.17-24.79-60.64-11.37,1.05-34.72,5.8-66.51,25.48-39.97,23.51-81.69,84.37-82.12,84.97-4.97,7.35-14.08,10.66-22.66,8.35-8.55-2.33-14.69-9.85-15.25-18.7-.23-3.48-5.28-85.72,14.36-136.21,8.32-22.6,18.75-40.81,28.09-54.36-9.49-1.23-21.32-2.37-35.76-3.1-50.54-2.49-137.8,0-138.67.03-8.77-.16-16.6-4.91-19.87-12.95-3.26-8.04-1.19-17.27,5.2-23.14,2.03-1.88,205.31-184.88,380.99-34.26,175.76,150.66,38.88,357.96,37.48,360.05-3.93,5.81-10.43,9.14-17.23,9.14ZM750.19,291.6c4.72,0,7.69.38,8.7.55,4.82.74,9.24,3.17,12.46,6.85,2.18,2.49,21.75,25.94,38.17,83.34,6.55,21.58,11.47,44.33,15.07,64.84,22.84-62.82,36.72-163.97-59-246.04-100.47-86.13-211.87-42.54-275.01-3.9,25.62-.13,54.15.03,76.49,1.14,53.65,2.68,76.56,10.77,79.02,11.69,6.78,2.54,11.75,8.43,13.12,15.54,1.34,7.12-1.09,14.43-6.45,19.3-.18.16-25.22,23.71-41.24,67.17-6.62,16.98-9.82,39.38-11.27,60.17,16.32-18,36.24-36.94,56.59-48.9,44.92-27.83,78.19-31.75,93.34-31.75Z"/>
    <path d="M818.1,229.55c-2.18,0-4.39-.34-6.57-1.08-10.89-3.63-16.77-15.4-13.15-26.29,27.71-83.11,116.56-91.58,160.05-91.03v-17.56c-20.78-2.77-60.09-5.04-103.23,7.75-59.79,17.71-82.42,62.58-83.36,64.48-5.02,10.25-17.33,14.64-27.74,9.61-10.28-4.97-14.64-17.27-9.74-27.58,1.24-2.58,30.88-63.2,109.02-86.37,74.91-22.15,138.4-6.05,141.09-5.37,9.16,2.39,15.53,10.65,15.53,20.11v57.16c0,6-2.61,11.71-7.13,15.66-4.54,3.95-10.63,5.67-16.49,4.94-1.09-.11-113.26-14.5-138.56,61.35-2.89,8.72-11.01,14.22-19.72,14.22Z"/>
  </g>
</svg>