<?xml version="1.0" encoding="UTF-8"?>
<svg id="marine" xmlns="http://www.w3.org/2000/svg" viewBox="0 0 1000 1000">
  <defs>
    <style>
      .cls-1 {
        fill: #00b692;
      }

      .cls-2 {
        fill: #ef9b2b;
      }
    </style>
  </defs>
  <g id="vegetarian">
    <path class="cls-1" d="M595.34,406.84c0,17.29,135.84,41.99,192.64,98.79,56.8,56.8,98.79,93.85,150.66,66.68,51.87-27.17,9.88-59.27,34.58-101.26,24.7-41.99-12.35-150.66-64.21-163-51.87-12.35-37.05-27.17-19.76-74.09,14.82-46.93-2.47-108.67-51.87-125.96-49.4-17.29-108.67,44.46-135.84,17.29-27.17-27.17-71.62-111.14-125.96-103.73-54.33,7.41-66.68,32.11-111.14,32.11-46.93,0-61.74,49.4-14.82,103.73,41.99,54.33,138.31,79.03,145.72,249.45Z"/>
    <path class="cls-2" d="M19.88,962.54c29.64,54.33,464.32-232.16,558.17-313.66,93.85-81.5,195.11-177.82,103.73-212.4-91.38-34.58-79.03-54.33-111.14-116.08-32.11-61.74-83.97-98.79-202.52,54.33C249.57,527.86-14.7,895.86,19.88,962.54Z"/>
    <path d="M25.01,993.64c-9.39,0-13.12-3.74-16.64-7.26-12.78-15.22-39.93-47.76,180.3-378.09,198.88-293.48,255.2-369.49,358.13-351.82,10.76,1.85,17.99,12.06,16.14,22.82-1.83,10.76-12.2,17.99-22.79,16.14-71.73-12.37-113.13,31.62-318.68,334.91C78.16,845.28,47.03,923.84,40.71,950.66c42.36-15.44,165.53-82.92,371.22-212.29,203.67-128.12,300.46-218.93,287.7-269.91-2.65-10.59,3.79-21.32,14.37-23.96,10.61-2.74,21.32,3.77,23.97,14.36,18.35,73.35-72.86,166.95-305.02,312.94C136.72,958.16,53.96,993.64,25.01,993.64Z"/>
    <path d="M434.8,488.35c-5.23,0-10.46-2.06-14.34-6.16-49.31-52.06-49.88-119.42-49.88-122.27,0-10.91,8.84-19.75,19.75-19.75s19.73,8.82,19.75,19.69c.02,1.16,1.06,55.05,39.05,95.15,7.51,7.92,7.18,20.43-.75,27.93-3.82,3.63-8.71,5.41-13.59,5.41ZM410.09,359.91h.25-.25Z"/>
    <path d="M681.79,555.04c-.96,0-1.95-.07-2.97-.22-106.22-15.94-150-79.97-151.8-82.68-6.05-9.08-3.59-21.35,5.5-27.4,9-6.05,21.27-3.63,27.35,5.4,1.76,2.56,37.22,52.45,124.84,65.6,10.78,1.62,18.21,11.67,16.59,22.48-1.47,9.79-9.89,16.81-19.51,16.81Z"/>
    <path d="M541.04,695.79c-1.45,0-2.92-.14-4.37-.48-82.53-18.62-120.82-66.83-122.42-68.88-6.69-8.61-5.14-21.03,3.47-27.74,8.59-6.66,20.95-5.16,27.66,3.4.71.87,32.43,39.43,99.96,54.68,10.66,2.39,17.34,12.98,14.93,23.61-2.07,9.19-10.23,15.41-19.25,15.41Z"/>
    <path d="M323.65,831.63c-2.5,0-5.04-.46-7.5-1.47-45.69-18.79-68.08-43.63-69-44.67-7.25-8.15-6.51-20.65,1.65-27.88,8.13-7.28,20.57-6.51,27.82,1.57.57.6,18.35,19.54,54.56,34.42,10.09,4.15,14.91,15.7,10.76,25.81-3.14,7.62-10.5,12.23-18.28,12.23Z"/>
    <path d="M291.56,626.64c-5.88,0-11.71-2.6-15.6-7.62-18.15-23.32-26.59-44.57-31.63-57.26-4.04-10.13.53-22.58,10.66-26.6,10.17-4.08,21.25-.05,25.29,10.06,0,.02.76,1.93.77,1.95,4.81,12.11,11.41,28.7,26.1,47.59,6.71,8.61,5.15,21.03-3.46,27.74-3.61,2.8-7.87,4.15-12.12,4.15Z"/>
    <path d="M600.27,419.19c-.96,0-1.95-.07-2.94-.22-7.67-1.16-13.94-6.69-16.06-14.15-.36-1.25-36.4-126.35-98.14-183.53l-7.51-6.93c-62.48-57.75-96.9-89.55-62.85-148.37,11.85-20.15,33.27-31.85,60.37-33.05,39.63-1.72,99.74,20.5,148.17,88.29,93.05,135.58-.43,282.77-4.46,288.97-3.67,5.67-9.94,9-16.57,9ZM477.62,72.36c-.93,0-1.85.02-2.75.06-7.68.34-21.54,2.54-27.98,13.49-17,29.38-8.88,39.88,55.55,99.42l7.54,6.97c44.81,41.5,76.43,110.37,93.77,155.95,18.86-47.33,37.09-128.73-14.81-204.37-37.82-52.92-82.92-71.52-111.32-71.52Z"/>
    <path d="M600.25,419.19c-4.15,0-8.37-1.3-11.94-4.03-8.68-6.61-10.37-19.01-3.76-27.69,94.06-123.67,97.68-209.42,91.46-249.55-5.09-32.92-20.24-59.73-42.64-75.5-55.26-38.12-95.94.48-100.41,4.99-7.62,7.77-20.09,7.97-27.89.39-7.79-7.56-8.07-19.95-.57-27.8,22.82-23.87,83.81-56.66,151.44-10.01,31.43,22.12,52.36,58.26,59.14,101.89,12.37,79.97-22.82,179.23-99.08,279.51-3.88,5.11-9.77,7.79-15.75,7.79Z"/>
    <path d="M902.87,600.07c-34.56,0-63.94-30.66-105.33-73.85l-9-9.35c-59.48-59.49-184.99-95.59-186.25-95.96-7.48-2.11-13-8.39-14.16-16.06-1.16-7.66,2.27-15.29,8.78-19.51,6.2-4.03,153.23-97.36,290.78-7.37,56.56,41.54,90.88,100.35,88.32,150.42-1.35,26.27-12.83,47.03-32.32,58.49-14.86,9.09-28.19,13.19-40.83,13.19ZM658.95,398.29c45.68,17.08,114.88,47.96,157.81,90.92l9.29,9.67c58.3,60.79,70.76,70.39,97.34,54.11,10.11-5.93,12.71-17.73,13.14-26.6,1.57-30.46-19.9-78.13-71.34-115.96-76.72-50.14-158.68-31.29-206.24-12.13Z"/>
    <path d="M953.44,503.16c-5.21,0-10.4-2.04-14.28-6.1-7.53-7.85-7.26-20.3.53-27.85,4.56-4.49,42.74-44.87,2.7-100.17-15.51-22.03-41.94-36.84-74.62-41.94-40.54-6.43-127.06-3-250.64,90.55-8.68,6.57-21.1,4.87-27.66-3.82-6.58-8.69-4.87-21.09,3.83-27.68,100.19-75.87,199.82-110.73,280.57-98.1,43.34,6.77,79.11,27.37,100.67,58.03,48.89,67.47,16.52,128.69-7.45,151.6-3.83,3.67-8.73,5.47-13.65,5.47Z"/>
    <path d="M834.92,325.34c-5.93,0-11.79-2.68-15.7-7.75-6.61-8.65-4.97-21.04,3.67-27.69.43-.34,44.16-34.44,48.26-77.1,1.93-19.93-5.09-38.63-21.42-57.15-15.27-17.87-31.89-26.82-51.06-27.63-44.62-1.87-87.7,40.47-88.13,40.91-7.74,7.66-20.24,7.65-27.93-.07-7.69-7.72-7.69-20.2.02-27.89,2.24-2.24,55.96-55.32,117.46-52.42,30.44,1.19,57.16,15.06,79.47,41.22,23.49,26.62,33.96,56,30.9,87.08-5.91,59.87-61.24,102.67-63.6,104.46-3.57,2.73-7.77,4.04-11.94,4.04Z"/>
  </g>
</svg>