<?xml version="1.0" encoding="UTF-8"?>
<svg id="Layer_1" data-name="Layer 1" xmlns="http://www.w3.org/2000/svg" viewBox="0 0 1000 1000">
  <defs>
    <style>
      .cls-1 {
        fill: #467c41;
      }

      .cls-2 {
        fill: #282828;
        opacity: .6;
      }

      .cls-3 {
        fill: #dc6a03;
      }

      .cls-4 {
        fill: #d05c02;
      }

      .cls-5 {
        fill: #fffdfb;
      }

      .cls-6 {
        fill: #f68b0d;
      }

      .cls-7 {
        fill: #bbceed;
      }

      .cls-8 {
        fill: #fffefd;
      }

      .cls-9 {
        fill: #ec8a04;
      }

      .cls-10 {
        fill: #d4e3fe;
      }

      .cls-11 {
        fill: #adc9fe;
      }

      .cls-12 {
        fill: #e5651f;
      }

      .cls-13 {
        fill: #ed7828;
      }

      .cls-14 {
        fill: #539540;
      }

      .cls-15 {
        fill: #c0d4f2;
      }
    </style>
  </defs>
  <ellipse id="Shadow" class="cls-2" cx="485.01" cy="986.54" rx="248.01" ry="13.46"/>
  <g id="Orange">
    <path class="cls-10" d="M550.52,112.34l192.51-.02-.02,805.4c-8.76-3.03-9.15,3.02-5.15,10.33-.73,42.48-42.07,46.7-75.17,49.84-9.55.9-76.93,3.09-80.83-1.07-1.59-1.7-.33-5.19.74-7.75-2.48-6.23.96-12.76,10.32-19.59-10.93-6.05-16.51-13.42-16.74-22.12-2.8-.91-2.76-1.98,0-3.21,4.05-8.83,29-9.97,32.08,0l6.42,3.21c.77-2.77,1.85-2.7,3.21,0,8.28-6.06,35.13,9.92,38.5,19.25,22.6,2.56,49.69-11.47,55.74-37.98l8.17-37.21,6.67-3.42-6.42-2.25V180.49l6.42-3.98c-17.95,8.75-36.63,8.89-54.54,0-5.16,6.25-10.9,6.27-16.04,0-22.61,10.01-60.84,7.15-83.42-3.21-9.08,1.81-15.48-2.96-19.2-14.33-4.59-21.15-15.73-30.07-33.44-26.76l-1.9-3.84c-8.34,5.96-35.63,12-34.85-2.04.93-16.86,45.27-8.67,57.41-6.36,2.23.42,4.38-.1,6.32-1.22-6.56-5.45-5.22-6.69,3.21-6.42Z"/>
    <path class="cls-13" d="M431.82,879.22c9.11-6.46,15.27-3.69,19.25,6.42,20.41-3,39.05,2.38,54.54,16.04,3.12.14,5.33-1.59,6.92-4.58,19.69,7.71,39.69,14.35,59.98,19.94l3.68,7.1v3.21c8.07,11.33-4.05,50.34-16.91,54.47-57.72,1.47-115.14-4.56-172.25-18.1-8.38-12.5-.02-24.04,14.38-23.66,49.24,8.8,51.75,8.01,7.53-2.35l-2.78-7.15-142.31-55c-16.19-5.79-2.53-49.42,5.92-50.09,2.57-.2,40.55,16.14,48.05,18.57,37.79,12.28,76.09,23.38,114.01,35.18Z"/>
    <path class="cls-7" d="M534.48,112.34c6.43-4.42,10.29.2,12.83,6.42-11.28,10.53-50.6-5.78-60.96,9.59,10.66.3,21.43-.3,32.08.03,3.06,2.56-10.3,15.93-14.49,19.32-3.4,2.75-9.7,3.66-14.11,3.55,1.72,12.53-10.63,13.97-20.84,13.49-1.29,8.61-2.72,10.14-11.51,11.76,1.07,237.78.69,472.03-1.12,702.77l-5.29,6.35c-6.52-1.99-12.83-4.42-19.25-6.42l1.4-763.88c1.62-2.4,4.06-2.52,6.62-3.01,7.39-1.41,89.58-1.49,94.65,0Z"/>
    <path class="cls-12" d="M380.49,927.35l12.83,3.21c3.92.67,9.07-.76,12.83,0,18.57,3.75,50.43,13.06,67.39,20.99,4.78,2.23,7.94-.5,6.38,7.88l-78.75-12.98c-9.45,0-12.29,3.73-11.08,12.98,57.49,5.55,115.14,23.31,172.8,15.6l13.29-47.68,25.56,21.07c.51,2.29-15.43,16.87-19.14,20.64,3.14,9.41-3.28,15.83-19.25,19.25-13.5,11.03-41.48,4.79-59.32,3.18-28.51-2.57-219.12-26.58-229.53-36.77-5.12-5.02-5.95-37.24,2.18-39.9,4.97-1.62,90.61,10.53,103.79,12.52Z"/>
    <path class="cls-14" d="M534.48,112.34c-2.63-18.69-9-43.25-33.18-34.77-7.11,2.49-9.3,21.19-13.32,5.9l-11.21,9.62c4.71-6.75-6.7-10.53-6.44-11.22,3.38-8.71,17.67-10.74,22.43-17.63-12.85-2.33-21.69,4.59-30.48,12.78l1.62-9.58-12.83-.06,12.86-11.2-12.88-8,35.28-3.19-35.27-3.28c11.74-14.53,3.04-7.18.45-10.09-1.88-2.11,3.21-7.4,2.48-8.82-.82-1.59-11.97-1.68-9.32-9.92,27.98,8.15,15.91-2.89,19.24-6.44,5.74-6.11,6.45,5.28,7.08,5.85,1.74,1.58,7.08-2.7,9.12-1.3,3.44,2.38,4.29,22.77,15.84,24.32-3.71-10.95-6.11-16.92-3.14-28.88l9.56,6.41L510.39,0c2.61,14.02-9.44,35.58,4.81,44.95-.31-5.59.07-25.95,3.28-28.86,6.19-5.61,5.69,11.2,12.69,3.25-2.14,12.68,13.36,7.51,1.81,19.38-7.84,8.06-12,2.17-11.57,17.37.55,19.41,16.6,24.93,19.52,43.39l18.41-24.52c1.76-13.78-10.82-9.8-12.05-10.79-.3-.24,3.12-4.07,2.18-5.7-1.4-2.42-7.53,2.84-2.14-10.28l12.74,4.83c-.55-5.17-12.6-11.93-12.71-12.83-.46-3.81,10.64-9.2,9.63-14.45l9.54,9.57c-4.74-10.9-.94-20.08,9.62-25.65-2.39,9.36,8.03,10.07,8.17,19,.1,6-6.26,6.84-4.9,13.08,1.18,1.42,12.97-14.2,19.2,4.83-7.98,2.65-14.19,5.67-19.17,12.85,16.69-3.54,12.85-1.74,12.75,14.39-6.08,2.38-11.19-4.98-14.45-5.22-12.21-.9-23.2,34.36-27.24,43.74-.69,1.61-2.45,5.71-3.21,6.42-7.15,3.22-12.1-6.2-12.83-6.42Z"/>
    <path class="cls-11" d="M743.02,917.72c-6.07,103.39-108.99,62.31-179.66,70.59,4.24-3.47,14.43-14.35,19.25-19.25,3.34,5.32,12.17,3.2,17.6,3.26,28.96.35,83.94,1.76,108.72-10.07,12.64-6.03,25.39-14.06,24.87-30.2-.22-6.74-7.87-2.9-6.5-8.95,1.84-8.11,12.17-18.06,12.56-27.81,5.73,1.48,3.45,17.66,3.17,22.44Z"/>
    <path class="cls-13" d="M393.32,930.56l-12.83-3.21c5.67.86,10.27,2.77,12.83,3.21Z"/>
    <path class="cls-3" d="M656.4,176.51l.56,10.11c-14.46,20.97-22.03,45.53-25.17,70.6-8.55,190.47-16.85,391.72-11.33,583.86.56,19.57,4,31.45,17.55,46.09,5.35,18.53.8,37.72-20.12,40.18-.81-.38-2.18.33-3.21,0l-6.42-3.21c-10.3-.58-22.28,1.27-32.08,0-20.6-2.66-49.76-16.38-70.58-22.46,16.43-233.56,15.16-477.34,12.47-710.84-.03-2.32,1.08-4.7,2.27-7.2,1.19-2.52,2.79-4.85,4.51-7.12,11.64-6.35,23.64-6.32,35.29,0-.95-5.29,3.33-6.36,12.83-3.21,26.62,0,55.86,3.05,83.42,3.21Z"/>
    <path class="cls-9" d="M672.44,176.51l5.45,8.97c-3,28.54-4.82,57.64-5.45,87.29,1.52,3.62,2.91,7.27,3.9,11.03s1.81,7.31,1.88,10.97c1.9,99.02.51,197.93-1.88,294.25l-3.9,4.62c10.79,10.11,9.05,36.51,1.76,47.97l-1.76,13c7.96,8.31,3.18,41.45-6.42,46.53l6.42,2.96v150.44l-6.42,3.83,5.98,3.64c-3.86,9.87-4.65,17.35.43,26.84,2.72-1.45,6.27-2.06,7.77.19,2.35,3.51,3.49,54.41,1.49,56.41-7.94,2.62-16.38,3-25.3,1.16-20.31-4.63-23.21-12.07-38.5-19.25.04-10.74,11.04-8.87,12.12-10.16.7-.84,4.16-18.11,4.09-20.51-.29-10.41-11.05-14.59-15.37-26.33-7.65-20.82-3.61-43.03-3.91-63.2-2.29-152.51-1.72-296.91,6.41-449.22,3.35-62.81-6.2-127.86,35.16-181.42,5.35.03,10.7-.04,16.04,0Z"/>
    <path class="cls-6" d="M672.44,176.51c18.13.13,36.41-.1,54.54,0v691.48c0,8.22-5.83,33.54-8.73,42.6-10.24,31.95-29.83,43.31-61.85,36.01l19.27.02c-1.96-10.78,4-53.73-3.23-57.77.27-9.53,3.41-19.92,9.42-31.18,3.18-66.95,1.55-134.93-4.86-203.93l-4.55.88c-1.02-20.09,1.42-40.96,0-60.97,5.59-10.8,6.54-24.3,7.22-38.95,4.32-92.31,4.54-187.62-.83-281.73l-6.39-.2c1.6-32.67-4.47-63.94,0-96.26Z"/>
    <path class="cls-1" d="M572.98,173.3c-.66,0-6.23,3.21-12.83,3.21l-10.26-3.3c-13.04-31.59-24.75-39.3-35.13-23.15,9.73,7.05,9.93,15.02,10.1,26.45-22.23,8.91-45.11,8.75-67.37,0,11.04-11.93-3.85-15.36.02-19.24,1.07-1.07,23.7,5.68,28.84-4.84-22.56,3.22-22.96-2.94-7.96-17.62,6.49-1.56,6.42,7.77,8.53,9.01,9.15,5.39,24.93-9.23,31.53-15.44,7.21.23,24.51-1.78,29.07,1.41,4.04,2.83,8.14,40.61,25.47,43.51Z"/>
    <path class="cls-9" d="M614.69,927.35c-2.38-.75-5.37.06-6.42-3.21,2.72.15,5.56.13,6.42,3.21Z"/>
    <path class="cls-4" d="M457.48,176.51c22.41-.11,44.96.15,67.37,0-1.85,45.63,3.42,90.89,3.34,136.5-.34,186.42-4.23,388.7-15.98,574.41-.38,5.98.73,12.02-6.61,14.26-18.23-5.32-36.38-10.5-54.54-16.04-4.45-19.02-.09-35.17.15-52.79,3.01-217.15-2.37-434.55-.39-651.72-1.29-6.82,6.18-4.1,6.65-4.61Z"/>
    <path class="cls-15" d="M560.15,176.51c-11.73,0-23.56-.08-35.29,0-14.32-8.93-4.96-11.25-6.81-15.51-.51-1.17-17.86-7.02-4.57-19.91,24.43-23.69,34.08,23.33,46.67,35.42Z"/>
    <path class="cls-5" d="M672.44,272.77c.02-.42,3.13-3.63,3.34-7.77.78-15.42-2.02-33.72-.14-48.44.74-5.82-1.1-5.21,6.41-4.76,5.08,91.13,9.26,183.03,6.56,274.48-.72,24.39-1.3,56.23-3.4,80.03-.67,7.66-1.49,28.14-12.78,27.33-3.44-48.57-.9-75.85.13-123.4,1.43-65.67-2.75-131.92-.13-197.47Z"/>
    <path class="cls-8" d="M672.44,888.84c-2.49-1.4-7.28.52-9.14-5.19-3.65-11.22,2.72-19.65,2.72-25.29v-157.23c0-8.32,4.51-36.74,6.42-46.53.48-2.47,3.42-16.13,6.38-16.02,12.23,52.02,9.02,105.76,9.53,158.94.08,8.29,3.31,16.26,3.5,25.39.48,23-3.24,48.72-19.4,65.93Z"/>
  </g>
</svg>