<?xml version="1.0" encoding="UTF-8"?>
<svg id="Layer_1" data-name="Layer 1" xmlns="http://www.w3.org/2000/svg" viewBox="0 0 1177.03 271.68">
  <defs>
    <style>
      .cls-1 {
        fill: #c8102f;
      }

      .cls-2 {
        fill: #fff;
      }

      .cls-3 {
        fill: #040404;
      }

      .cls-4 {
        fill: #0f0f0f;
      }
    </style>
  </defs>
  <g>
    <path d="M911.08,119.54c6.25-.17,12.55.23,18.8.02,1.25-.04,2.41-.51,3.66-.57,2.72-.13,9.46.66,11.37-.8,5.31-8.34,9.31-17.43,14.22-25.99,5.2-9.06,12.34-22.61,22.96-25.72,3.5-1.03,3.68-.95,5.06,2.65,3.58,9.33-4.8,24.79-7.96,34.13-1.34,3.95-2.45,8.03-3.56,12.04,1.2,1.04,21.73-6.4,14.73,4.42-3.19,4.94-10.78,6.3-15.78,8.56-4.55,2.05-4.43,3.89-5.79,8.5-3.74,12.77-6.06,48.04-25.54,46.66-8.29-.59-10.22-5.43-10.94-12.91-1.02-10.58,2.68-19.72,4.69-29.82l-35.61,5.28c-2.55,4.8-4.92,9.79-6.98,14.83-4.09,10.02-11.5,39.42-22.99,42.09-6.49,1.51-13.49-1.86-15.63-8.25-4.71-14.05,6.03-35.45,10.34-48.88-6.61-3.61-28.52-9.08-21.12-20.6,4.8-7.47,25.34-4.38,33.13-5.23,10.64-14.82,17.76-32.48,29.23-46.69,3.56-4.4,12.97-14.35,18.81-14.55,6.99-.25,6.38,10.39,4.71,14.8-5.87,15.63-13.39,30.63-19.84,46.02Z"/>
    <path d="M819.91,150.66c-4.81-2.25-14.84-2.02-16.51-8.35-2.49-9.4,10.03-19.84,6.35-30.16-2.8-7.85-6.24-4.4-11.63-4.21-5.42.18-11.66-.96-17.48-.59-24.01,1.53-59.42,19.45-57.94,47.4.14,2.72,1.42,5.91,1.52,8.03.07,1.63-7.07,2.66-8.65,2.78-11.84.93-24.53-3.93-36.23-5.28,8.55-8.11,16.73-16.61,25.39-24.61,7.64-7.05,19.85-13.65,18.52-25.92-1.26-11.6-22.43-11.33-30.95-10.84-11.1.64-25.05,4.57-35.93,3.13-5.69-.76-9.99-5.72-12.23,3.2-2.55,10.15,4.07,14.21,12.97,16.16,9.69,2.12,20.32,1.45,30.13.49.45-.05,1.59-.64,1.09.55-.15.35-4.78,4.37-5.57,5.02-11.63,9.65-43.81,25.98-45.69,41.61-1.74,14.43,6.42,9.82,16.08,9.21,19.8-1.26,51.76,7.94,69.4-.97,2.17-1.1,9.04-7.18,9.96-7.27,1.33-.15,6.76,1.69,9,1.87,15.69,1.29,27.9-6.89,40.83-14.19,7.73,7.02,20.94,8.92,30.88,6.55,6.59-1.57,17.06-8.73,6.69-13.61ZM780.67,130.13c-1.33,3.12-1.72,6.63-2.92,9.78-8.52,2.9-16.53,8.49-25.93,7.67,2.91-13.86,18.56-20.53,31.22-22.22.1,1.92-1.65,3.07-2.37,4.77Z"/>
    <path d="M438.86,81.45c-.77-.13-4.16-1.74-4.41-2.47-1.08-3.15.19-10.16,2.12-13.05,7.96-11.95,35.14-11.59,47.55-9.1,47.59,9.55,60.29,63.24,13.85,85.31-11.02,5.24-36.19,11.45-47.05,5.02-1.2-.71-5.06-3.79-3.84-5.11,3.64-3.96,13.88-4.14,19.03-5.31,12.17-2.77,31.97-12.42,33.32-26.47,1.65-17.13-15.97-26.46-30.62-27.7-7.7,26.55-19.48,51.64-32.07,76.13-7.04,13.7-14.71,28.9-22.41,42.14-3.66,6.3-10.83,15.56-19,15.39-1.71-.03-4.12-4.21-4.62-5.71-2.69-7.96,2.28-24.03,4.75-32.26,10.63-35.46,30.25-69.29,54.76-96.83-3.47-.4-8.07.55-11.38,0Z"/>
    <path d="M595.96,176.38c-.59.56-3.43,2.8-2.86,3.48,7.74-1.11,16.68-.03,24.51,1.14,20.12,3,43.78,12.42,64.05,9.39,5.44-.82,11.21-3.99,16.63-.92.71,12.8-18.46,16.22-28.22,16.84-28.41,1.79-56.33-7.24-84.64-5.28-10.12.7-19.57,4.34-30.11,3.11-1.2-.14-6.55-1.64-7.2-2.32-2.94-3.04-.23-14.28,1.69-17.89,5.79-10.9,33.29-29.49,44.07-38.47,4.41-3.68,8.77-7.45,12.97-11.37-11.47.17-26.84,2.44-37.56-2.64-5.98-2.83-10.74-12.01-3.55-15.71,5.62-2.89,21.79.32,28.65.66,7.21.36,39.63-1.38,43.44,2.06,1.79,1.61,1.63,9.41,1.16,11.81-2.72,14.04-31.99,35.62-43.04,46.11Z"/>
    <path d="M1127.89,81.57c.54.39,1.96,4.62,2.1,5.57,1.26,8.64-4.68,13.54-7.79,20.76l48.94-.53c1.13-.03,6.27,1.77,5.88,3.2-.64,2.32-3.43,3.85-5.6,4.48-10.55,3.08-24.54,5.92-35.45,7.94-7.91,1.47-15.87,2.39-23.8,3.71-6.95,11.93-13.65,24.06-19.52,36.56-4.35,9.25-9.19,25.13-14.26,32.83-1.07,1.63-6.03,6.8-7.99,5.4-.23-.16-1.69-4.49-1.9-5.24-4.14-14.24.57-33.76,5.42-47.5,2.46-6.99,5.81-13.58,8.58-20.43-6.51-3.44-21.49-4.74-21.16-14.86.12-3.56,3.62-7.27,7.15-7.7,10.25-1.25,20.47,8.92,28.83-.27,6.2-6.81,13.95-22.29,23.37-24.24,1.61-.33,5.96-.59,7.21.31Z"/>
    <path d="M1002.95,133.49c6.22,6.29,4.67,20.45,3.1,28.39-.52,2.62-1.92,5.29-1.6,7.93,12.68-5.05,24.66-12.25,34.12-22.11,3.78-3.94,11.15-15.13,15.36-16.76,5.35-2.08,7.54-.58,9.15,4.6,2.62,8.46-3.86,23.6-5.73,32.68-1.22,5.92-2.84,14.46-2.35,20.38.22,2.71,1.39,4.99,1.06,7.96-.5,4.61-2.6,4.2-6.26,3.06-11.03-3.44-15.68-15.38-15.98-26.08-5.62,1.79-9.45,6.59-14.11,9.95-9.37,6.76-26.33,15.57-37.16,7.73-10.79-7.81-7.67-19.29-3.47-29.83,1.55-3.88,7.86-14.79,8.03-17.82.22-3.87-9.6-7.42-5.34-10.71,5.49-4.24,16.13-4.45,21.18.66Z"/>
    <path d="M551.17,111.2c2.13,2.18,2.53,16.88,2.23,20.24-1.9,21.33-23.8,35.81-28.64,53.89-1.16,4.34-.01,9.78-6,10.4-13.38,1.38-16.43-16.01-14.94-26.04,2.76-18.58,26.11-43.17,39.27-56.5,1.83-1.86,5.79-4.34,8.09-1.99Z"/>
    <path d="M590.92,61.94c-.45,7.86-6.37,14.35-11.31,20.05-4.43,5.11-13.69,15.97-19.3,18.8-16.64,8.39-21.91-10.21-13.16-22.15,8.32-11.35,29.91-20.76,43.76-16.7Z"/>
    <path class="cls-3" d="M1114.25,176.69c.83.15,2.53-.29,3.1.07.44.28,2.51,7.87,2.98,7.87,2.03-3.06,1.12-9.26,6.08-7.94v11.11c0,.11-2.12.11-2.12,0v-7.94l-2.92,7.4-1.57.53-3.45-8.46v8.47c0,.11-2.12.11-2.12,0v-11.11Z"/>
    <path class="cls-4" d="M1112.67,176.69v1.59c-4.46-.14-3.19-.01-3.15,2.88.02,1.27.22,5.4-.28,6.13-.74,1.09-2.39.25-2.39-.28v-8.73c0-.16-3.01.18-3.18,0v-1.59h9Z"/>
  </g>
  <g>
    <path class="cls-1" d="M196.85,264.26c-.68-1.09.96-3.45,1.72-4.3,30.83-17.39,55.73-42.1,66.47-76.56,11.83-37.97,8.33-94.23-17.68-125.91-15.15-18.46-51.3-38.98-75.26-40.5-2.5-.16-9.26-.99-7.49,3.15,1.37,3.21,8.69,2.81,11.4,3.22,36.95,5.66,72.6,36,81.37,72.72,6.8,28.45,7.27,63.95-4.41,91.07-25.83,59.99-93.74,94.09-157.79,82.18-29.7-5.52-63.08-24.61-75.18-53.62-1.3-3.12-5.82-16.88,1.79-14.43,2.29.74,12.28,15.03,14.79,18,17.59,20.9,40.48,34.48,67.69,38.98,2.58.43,13.35,1.78,14.92.56.7-.55.78-1.57.2-2.25-.6-.72-9.68-1.93-11.51-2.32-20.3-4.29-36.43-13.06-52.15-26.48-32.27-27.55-35.43-54.97-33.99-96.03,1.05-29.82,13.89-56.42,35.96-76.24,13.77-12.37,31.51-18.83,48.36-25.84,1.04-2.08-2.04-1.69-3.47-1.56-9.14.84-23.68,7.51-31.72,12.13-36.08,20.72-53.78,55.78-56.62,96.67-.18,2.64.68,11.42-1.36,12.86-3.35,2.38-6.95-3.48-7.62-6.26-4.59-18.97-.15-43.23,7.72-60.8C35.25,33.01,87.09,9.99,138.24,2.07c62.54-9.68,117.54,14.43,141.44,74.45,15.96,40.09,14.21,98.9-11.21,134.79-11.43,16.13-43.15,46.68-62.01,52.17-1.6.46-8.76,2.11-9.61.76Z"/>
    <path class="cls-1" d="M5.47,160.89c6.64-1.08,9.72,6.18,10.33,11.6.17,1.55-.11,3.17.05,4.7.31,2.98,1.34,7.96,1.21,10.68-.32,7.05-11.03,2.33-13.63-1.82-3.24-5.17-6.55-23.76,2.04-25.16Z"/>
    <path class="cls-2" d="M231.03,142.08c-.7.77-2.22,1.53-3.26,1.68-4.08.59-9.87.16-14.18.44-54.49,3.53-107.24,12.56-160.47,24.07-6.04-1.2-3.71-3.43-.49-6.06,14.72-11.99,32.62-20.5,49.73-28.49,5.11-7.06,9.14-14.92,14.72-21.63l54.27-13.68c2.44-.17,3.31-.52,4.45,1.78,1.44,2.9,3.63,17.07,5.2,18.11,14.86,4.06,30.03,7.43,43.99,14.09,3.61,1.73,10.53,4.73,6.04,9.68Z"/>
  </g>
</svg>