<?xml version="1.0" encoding="UTF-8"?>
<svg id="Layer_1" data-name="Layer 1" xmlns="http://www.w3.org/2000/svg" viewBox="0 0 800 800">
  <defs>
    <style>
      .cls-1 {
        fill: #fff;
        stroke: #231f20;
        stroke-miterlimit: 10;
        stroke-width: 60px;
      }

      .cls-2 {
        fill: #231f20;
      }
    </style>
  </defs>
  <path class="cls-1" d="M650.25,151.36v71.35c0,15.2-12.33,27.53-27.53,27.53h-74.48c-12.06,0-21.83,9.77-21.83,21.83v101.6h91.06c17.32,0,30.34,15.81,27.02,32.81l-6.26,32.07-7.67,39.27c-2.52,12.93-13.85,22.26-27.02,22.26h-77.13v299.92h-126.41v-299.92h-73.3c-15.2,0-27.53-12.33-27.53-27.53v-71.35c0-15.2,12.33-27.53,27.53-27.53h73.3v-97.73c0-13.69,1.81-26.96,5.2-39.58,17.42-64.82,76.59-112.53,146.91-112.53h70.61c15.2,0,27.53,12.33,27.53,27.53Z"/>
  <path class="cls-2" d="M730.41,69.59C685.54,24.71,625.87,0,562.41,0H237.59c-63.46,0-123.13,24.71-168,69.59C24.71,114.46,0,174.13,0,237.59v324.82c0,63.46,24.71,123.13,69.59,168,44.87,44.88,104.54,69.59,168,69.59h324.82c63.46,0,123.13-24.71,168-69.59,44.88-44.87,69.59-104.54,69.59-168V237.59c0-63.46-24.71-123.13-69.59-168ZM728.91,562.41c0,91.81-74.69,166.5-166.5,166.5H237.59c-91.81,0-166.5-74.69-166.5-166.5V237.59c0-91.81,74.69-166.5,166.5-166.5h324.82c91.81,0,166.5,74.69,166.5,166.5v324.82Z"/>
</svg>