<?xml version="1.0" encoding="UTF-8"?>
<svg id="Layer_1" data-name="Layer 1" xmlns="http://www.w3.org/2000/svg" xmlns:xlink="http://www.w3.org/1999/xlink" viewBox="0 0 800 800">
  <defs>
    <style>
      .cls-1 {
        fill: none;
      }

      .cls-2 {
        fill: #231f20;
      }

      .cls-3 {
        clip-path: url(#clippath);
      }
    </style>
    <clipPath id="clippath">
      <path class="cls-1" d="M562.41,800H237.59c-63.46,0-123.13-24.71-168-69.59C24.71,685.54,0,625.87,0,562.41V237.59c0-63.46,24.71-123.13,69.59-168C114.46,24.71,174.13,0,237.59,0h324.82c63.46,0,123.13,24.71,168,69.59,44.88,44.87,69.59,104.54,69.59,168v324.82c0,63.46-24.71,123.13-69.59,168-44.87,44.88-104.54,69.59-168,69.59ZM237.59,71.09c-91.81,0-166.5,74.69-166.5,166.5v324.82c0,91.81,74.69,166.5,166.5,166.5h324.82c91.81,0,166.5-74.69,166.5-166.5V237.59c0-91.81-74.69-166.5-166.5-166.5H237.59ZM400,603.17c-112.03,0-203.17-91.14-203.17-203.17s91.14-203.17,203.17-203.17,203.17,91.14,203.17,203.17-91.14,203.17-203.17,203.17ZM400,267.83c-72.88,0-132.17,59.29-132.17,132.17s59.29,132.17,132.17,132.17,132.17-59.29,132.17-132.17-59.29-132.17-132.17-132.17ZM613.49,140.93c-25.79,0-46.7,20.91-46.7,46.7s20.91,46.7,46.7,46.7,46.7-20.91,46.7-46.7-20.91-46.7-46.7-46.7Z"/>
    </clipPath>
  </defs>
  <g class="cls-3">
    <rect class="cls-2" x="0" width="800" height="800"/>
  </g>
</svg>