<?xml version="1.0" encoding="UTF-8"?>
<svg id="Layer_1" data-name="Layer 1" xmlns="http://www.w3.org/2000/svg" viewBox="0 0 800 800">
  <defs>
    <style>
      .cls-1 {
        fill: #fefefe;
      }
    </style>
  </defs>
  <path d="M428.81,712.4c-18.72,26.79-63.04,14.84-65.98-18.32-1.5-16.93,12.02-36.15,28.95-39.02,33.14-5.62,56.51,29.46,37.03,57.34Z"/>
  <path d="M455.33,109.24c-33.59,4.76-77.52-3.16-112.22-.01-19.14-3.67-22.8-27.4-4.5-35.46l119.89-.24c19.75,5.8,17.56,32.77-3.17,35.71Z"/>
  <path d="M543.75,0H253.12c-39.5,9.11-69.03,38.89-71.94,80.4l.09,642.23c3.2,26.94,18.02,51.08,41.12,65.13,9.4,5.72,19.28,8.05,29.17,12.24h292.19c38.71-7.16,68.85-36.12,73.41-75.81l.1-645.35c-2.9-41.5-33.64-71.23-73.51-78.84ZM581.31,718.03c-2.36,27.38-22.59,43.98-49.22,46.09-85.81,6.78-180.49-5.18-267.22-.08-28.85-3.2-45.75-21.87-47.75-50.69l.09-629.73c2.28-25.43,19.54-44.02,44.94-47.25l271.42-.41c27.1,2.94,45.74,19.78,47.75,47.57v634.5Z"/>
  <path class="cls-1" d="M428.81,712.4c-18.72,26.79-63.04,14.84-65.98-18.32-1.5-16.93,12.02-36.15,28.95-39.02,33.14-5.62,56.51,29.46,37.03,57.34Z"/>
  <path class="cls-1" d="M455.33,109.24c-33.59,4.76-77.52-3.16-112.22-.01-19.14-3.67-22.8-27.4-4.5-35.46l119.89-.24c19.75,5.8,17.56,32.77-3.17,35.71Z"/>
  <path d="M455.33,109.24c-33.59,4.76-77.52-3.16-112.22-.01-19.14-3.67-22.8-27.4-4.5-35.46l119.89-.24c19.75,5.8,17.56,32.77-3.17,35.71Z"/>
  <path d="M428.81,712.4c-18.72,26.79-63.04,14.84-65.98-18.32-1.5-16.93,12.02-36.15,28.95-39.02,33.14-5.62,56.51,29.46,37.03,57.34Z"/>
</svg>