<?xml version="1.0" encoding="UTF-8"?>
<svg id="Layer_1" data-name="Layer 1" xmlns="http://www.w3.org/2000/svg" viewBox="0 0 800 800">
  <defs>
    <style>
      .cls-1 {
        fill: #fff;
      }

      .cls-2 {
        fill: #ababab;
      }
    </style>
  </defs>
  <path class="cls-1" d="M165.62,0c18.62,3.56,34.02,10.42,48.46,22.64,41.82,35.41,82.61,84.89,120.95,124.37,18.71,31.02,12.66,74.86-16.41,97.39-13.78,10.68-31.93,13.26-45.92,24.39-80.52,64.03,38.87,192.92,93.1,234.96,44.06,34.16,114.11,75.93,162.17,25,16.16-17.13,16.03-39.62,35.28-56.91,30.7-27.56,72.14-23.14,102.4,2.37,41.9,35.31,80.99,84.65,120.98,122.77,7.58,11.87,10.5,25.39,13.38,38.97v9.38c-.96,12.29-2.31,22.54-7.76,33.71-13.01,26.68-69.43,79.55-93.45,98.6-18.85,14.94-36.59,21.87-61.29,22.38h-39.06c-73.41-6.34-142.89-41.74-203.96-81.34C247.6,623.43,88.22,457.55,23.35,293.54,10.7,261.56-.2,226.56,1.56,192.19.03,183.78.03,174.04,1.56,165.62c-4.34-37.6,14.95-60.89,38.3-85.99,19.85-21.34,44.75-47.49,67.49-65.22C118.62,5.63,127.7,1.7,142.19,0h23.44Z"/>
  <path class="cls-2" d="M1.56,192.19H0v-26.56h1.56c-.48,8.12-.47,18.44,0,26.56Z"/>
</svg>