<?xml version="1.0" encoding="UTF-8"?>
<svg id="Layer_1" data-name="Layer 1" xmlns="http://www.w3.org/2000/svg" viewBox="0 0 1000 1000">
  <defs>
    <style>
      .cls-1 {
        fill: #939393;
      }

      .cls-2 {
        fill: #f74c4b;
      }

      .cls-3 {
        fill: #e99e47;
      }

      .cls-4 {
        fill: #fbda72;
      }

      .cls-5 {
        fill: #c80a08;
      }

      .cls-6 {
        fill: #c81a10;
      }

      .cls-7 {
        fill: #c30803;
      }

      .cls-8 {
        fill: #eda925;
      }

      .cls-9 {
        fill: #f4c26a;
      }

      .cls-10 {
        fill: #de630e;
      }

      .cls-11 {
        fill: #74b80e;
      }
    </style>
  </defs>
  <path class="cls-8" d="M475.57,980.81l.57-.18c-.08.23-.15.47-.22.7-.12-.17-.24-.34-.35-.52Z"/>
  <path class="cls-8" d="M492.69,225.69c-7.51,1.56-14.57,4.31-21,8.05,0,0-.01,0-.01.01-1.79,1.96-4.23,3.65-7.42,4.97-16.83,12.9-27.69,33.2-27.69,56.04,0,6.03.76,11.89,2.19,17.48-4.28-.52-8.59-.62-12.85-.34-17.43,1.12-34.19,8.7-46.57,21.73-.51.54-1.01,1.08-1.51,1.64-.11-.53-.23-1.07-.35-1.6-4.69-20.17-18.02-37.02-35.87-46.42-9.81-5.17-20.98-8.1-32.84-8.1-2.91,0-5.78.18-8.6.52-10.01,1.22-19.38,4.53-27.64,9.49-16.59,9.96-28.75,26.55-32.81,46.11-14.62-16.4-35.95-24.79-57.3-23.38-9.35.62-18.7,3.12-27.5,7.64-15.2-24.27-30.13-48.17-41.89-69.5l6.67-11.88c53.67-25.51,106.96-52.06,159.88-79.65,43.49-8.09,88.5-7.59,135.04,1.49,23.31-13.48,45.96-22.96,68.44-28.9-1.6,2.14-3.08,4.39-4.44,6.75-1.01,1.76-1.94,3.54-2.78,5.34-2.79,5.92-4.68,12.07-5.72,18.28-3.94,23.58,4.4,48.01,22.57,64.23Z"/>
  <path class="cls-10" d="M677.27,11.44c4.3.49,8.96,1.06,13.93,1.7-3.53,5.45-6.33,11.42-8.26,17.78-.61,2-1.13,4.04-1.56,6.11-3.31-3.72-6.97-7.02-10.89-9.89-17.6-12.89-40.56-17.09-61.87-10.71-5.17,1.54-10.24,3.71-15.11,6.52-3.51,2.02-6.77,4.3-9.79,6.81-31.56,1.58-64.11,7.34-99.62,16.6-73.32-6.21-145.96-5.32-217.92,2.68-44.88,11.72-81.6,31.12-120.12,55.67l-74.48,21.69c-15.25,6.1-15.87,24.75-13.23,39.11,1.17-1.15,2.22-2,3.13-2.58,4.32-2.76,5.6.55,1.84,7.55l11.5,7.02c39.82-7.03,77.79-22.11,113.93-45.23,70.92-13.12,143.74-18.72,218.48-16.81,53.64-15.83,101.02-29.05,150.99-31.13.01,2.89.2,5.8.57,8.69.57,4.39,1.55,8.76,2.97,13.06-17.98-5.93-37.27-4.24-53.63,3.95-7.53,3.75-14.43,8.88-20.3,15.27-26.17,5.01-52.2,13.27-78.07,24.78-108.07-8.78-200.9,17.56-294.75,72.79l-16.89-2.67c-5.2-5.87-19.45-11.87-27.46-19.79C-24.36,106.54,151.2,59.63,218.6,39.89,376.6-6.37,514.46-7.31,677.27,11.44Z"/>
  <path class="cls-10" d="M820.28,36.16c-.26.29-.53.58-.79.87-.08-.37-.16-.74-.24-1.11.35.08.69.16,1.03.24Z"/>
  <path class="cls-7" d="M508.13,110.03c-7.53,3.75-14.43,8.88-20.3,15.27-1.69,1.83-3.28,3.76-4.77,5.79-1.6,2.14-3.08,4.39-4.44,6.75-1.01,1.76-1.94,3.54-2.78,5.34-20.58,9.05-41.98,24.91-62.58,27.01-24.77,2.53-54.32-8.53-79.02-9.58-85.3-3.61-141.1,72.12-221.21,89.42-4.45-8.09-9.97-24.25-14.91-29.83,68.21-33.86,138.29-73.92,216.07-79.74,30.14-2.25,64.68,3.68,94.24-.23,25.14-3.32,56.41-20.87,82.41-26.97,5.77-1.35,11.53-2.42,17.29-3.23Z"/>
  <path class="cls-3" d="M608.62,16.43c-5.17,1.54-10.24,3.71-15.11,6.52-3.51,2.02-6.77,4.3-9.79,6.81-16.52,13.67-25.57,33.89-25.5,54.57.01,2.89.2,5.8.57,8.69-63.58-2.54-84.89,24.09-150.35,32.31-63.46,7.96-136.6-4.38-202.08,11.7-38.1,9.36-96.8,53.39-134.87,42.42-6.82-1.96-6.5-7.5-8.17-8.97,4.78-5.31,12.72-7.3,23.84-5.96l32.14-19.98c31.28-7.65,57.7-17.2,70.65-49.69-30.76,21.82-66.44,36.8-107.05,44.93-7.13,9.31-14.27,17.03-21.42,23.15-1.04.89-2.09,1.75-3.13,2.58-25.9-58.06,31.29-45.74,68.05-58.73,35.48-12.54,70.43-44.81,106.07-57.99,86.83-32.1,165.72-9.18,251.18-12.36,36.35-1.36,75.01-16.31,109.74-19.45,5.08-.46,10.15-.63,15.23-.55Z"/>
  <path class="cls-3" d="M682.94,30.92c-.61,2-1.13,4.04-1.56,6.11-3.31-3.72-6.97-7.02-10.89-9.89,4.15,1.2,8.3,2.47,12.45,3.78Z"/>
  <path class="cls-4" d="M492.69,225.69c-7.51,1.56-14.57,4.31-21,8.05,0,0-.01,0-.01.01-1.79,1.96-4.23,3.65-7.42,4.97-16.83,12.9-27.69,33.2-27.69,56.04,0,6.03.76,11.89,2.19,17.48-4.28-.52-8.59-.62-12.85-.34-17.43,1.12-34.19,8.7-46.57,21.73-.51.54-1.01,1.08-1.51,1.64-.11-.53-.23-1.07-.35-1.6-4.69-20.17-18.02-37.02-35.87-46.42-9.81-5.17-20.98-8.1-32.84-8.1-2.91,0-5.78.18-8.6.52-10.01,1.22-19.38,4.53-27.64,9.49-16.59,9.96-28.75,26.55-32.81,46.11-14.62-16.4-35.95-24.79-57.3-23.38-2-8.8-3.4-17.21-4.12-25.16-3.5-38.72,1.49-48.08,32.54-70.65,75.27-54.73,125.85-18.96,202.68-30.99,17.1-2.68,35.67-15.66,56.6-23.63-3.94,23.58,4.4,48.01,22.57,64.23Z"/>
  <path class="cls-9" d="M63.32,170.48c-1.69-1.48-4.04-2.88-4.97-4.97-.08-49.93,65.38-40.96,101.32-60.26,17.44-9.37,25.24-24.14,42.83-29.21,3.73,21.8-17.87,50.39-35.04,61.87-14.45,9.67-29.6,9.26-44.01,15.64-20.85,9.24-31.23,31.96-60.14,16.93Z"/>
  <path class="cls-5" d="M425.91,311.9c-17.43,1.12-34.19,8.7-46.57,21.73-.51.54-1.01,1.08-1.51,1.64-.11-.53-.23-1.07-.35-1.6-4.69-20.17-18.02-37.02-35.87-46.42-9.81-5.17-20.98-8.1-32.84-8.1-2.91,0-5.78.18-8.6.52-10.01,1.22-19.38,4.53-27.64,9.49,11.11-32.95,40.74-59.4,86.13-53.65,42.44,5.37,65.14,40.51,67.25,76.39Z"/>
  <path class="cls-11" d="M287.02,200.34c8.3,24.56-29.78,78.82-54.75,62.21-8.92-7.47-4.7-8.34,0-15.08,2.68-3.84,34.82-40.78,37.06-42.49,6.07-4.62,10.07-5.74,17.69-4.64Z"/>
  <path class="cls-6" d="M471.69,233.74s-.01,0-.01.01c-1.79,1.96-4.23,3.65-7.42,4.97-.5.21-1.01.4-1.55.59-20.39,7.1-42.78-4.22-32.75-27.65,16.75-39.11,58.84,3.37,41.73,22.08Z"/>
  <path class="cls-2" d="M391.42,294.75c-20.56-8.29-33.84-12.86-49.81-7.5-9.81-5.17-20.98-8.1-32.84-8.1-2.91,0-5.78.18-8.6.52,26.22-21.17,85.23-22.1,91.25,15.08Z"/>
  <path class="cls-2" d="M379.34,333.63c-.51.54-1.01,1.08-1.51,1.64-.11-.53-.23-1.07-.35-1.6.56-.05,1.18-.06,1.86-.04Z"/>
  <path class="cls-1" d="M471.68,233.75c-1.79,1.96-4.23,3.65-7.42,4.97,2.36-1.81,4.84-3.47,7.42-4.97Z"/>
</svg>