<?xml version="1.0" encoding="UTF-8"?>
<svg id="Layer_1" data-name="Layer 1" xmlns="http://www.w3.org/2000/svg" viewBox="0 0 1000 1000">
  <defs>
    <style>
      .cls-1 {
        fill: #76ba10;
      }

      .cls-2 {
        fill: #79b410;
      }

      .cls-3 {
        fill: #71bb0a;
      }

      .cls-4 {
        fill: #f74c4b;
      }

      .cls-5 {
        fill: #e99e47;
      }

      .cls-6 {
        fill: #f74744;
      }

      .cls-7 {
        fill: #f74c49;
      }

      .cls-8 {
        fill: #c81209;
      }

      .cls-9 {
        fill: #75b80f;
      }

      .cls-10 {
        fill: #fbda72;
      }

      .cls-11 {
        fill: #f54a4a;
      }

      .cls-12 {
        fill: #f84c4b;
      }

      .cls-13 {
        fill: #c80a08;
      }

      .cls-14 {
        fill: #c80a05;
      }

      .cls-15 {
        fill: #c81a10;
      }

      .cls-16 {
        fill: #c30803;
      }

      .cls-17 {
        fill: #7cba12;
      }

      .cls-18 {
        fill: #c8140c;
      }

      .cls-19 {
        fill: #c8170b;
      }

      .cls-20 {
        fill: #eda925;
      }

      .cls-21 {
        fill: #f4c26a;
      }

      .cls-22 {
        fill: #f4c368;
      }

      .cls-23 {
        fill: #de630e;
      }

      .cls-24 {
        fill: #74b80e;
      }

      .cls-25 {
        fill: #80b616;
      }

      .cls-26 {
        fill: #c80d07;
      }

      .cls-27 {
        fill: #c70a05;
      }
    </style>
  </defs>
  <path class="cls-20" d="M475.57,980.81l.57-.18c-.08.23-.15.47-.22.7-.12-.17-.24-.34-.35-.52Z"/>
  <path class="cls-20" d="M898.56,210.26c-45.72,63.38-45.73,118.76-78.58,172.48-11.02,18.02-30.24,33.26-41.7,52.76-17.23,29.31-20.05,60.08-34.24,89.39-3.65,2.74-7.06,5.86-10.17,9.35-1.91-9.19-5.61-17.73-10.72-25.23-6.76-9.94-15.98-18.05-26.79-23.46-5.5-2.76-11.4-4.82-17.6-6.07-4.51-.9-9.17-1.37-13.94-1.37s-9.27.46-13.7,1.33c-15.64,3.08-29.42,11.33-39.49,22.9-2.69,3.07-5.1,6.38-7.22,9.89-4.04,6.69-7.01,14.11-8.65,22.01-9.81-11-22.64-18.4-36.48-21.65-16.86-3.97-35.21-1.77-51.39,7.57-10.61,6.13-19.03,14.59-24.97,24.36-.01,0,0,.01,0,.01-8.8,14.45-12.19,31.77-9.3,48.63.58,3.4,1.42,6.79,2.52,10.13-2.63-.87-5.28-1.57-7.95-2.11-9.44-1.93-19.08-1.87-28.3.05-10.38,2.13-20.26,6.59-28.79,13.15-.41.31-.81.62-1.22.95-2.97,2.39-5.77,5.04-8.36,7.95-2.27,2.53-4.37,5.26-6.28,8.17-.78,1.17-1.52,2.37-2.23,3.6-17.01,29.45-10.35,66.06,14.06,87.85-4.46.93-8.77,2.28-12.88,4.01-7.97,3.35-15.19,8.12-21.35,14-44.36-77.14-96.12-148.61-129.29-231.12-10.49-26.1-15.67-58.29-26.66-82.72-23.04-51.21-73.82-122.54-103.86-177.04l6.67-11.88c53.67-25.51,106.96-52.06,159.88-79.65,43.49-8.09,88.5-7.59,135.04,1.49,84.12-48.66,159.58-45.18,249.79-11.38,42.27,6.47,85,9.24,128.18,8.31,32.83,20.37,67.1,34.27,102.83,41.7l3.14,11.64Z"/>
  <path class="cls-23" d="M918.45,71.05c3.32,7.12,4.26,13.23-3.21,12.74l-107.47-15.79c-17.36,5.07-36.76,3.34-58.21-5.21-93.24-40.9-168.27-41.77-265.46-16.43-73.32-6.21-145.96-5.32-217.92,2.68-44.87,11.72-81.6,31.12-120.11,55.68l-74.48,21.69c-15.25,6.1-15.87,24.75-13.23,39.11,6.69-6.58,9.52-3.52,4.97,4.97l11.5,7.02c39.82-7.03,77.8-22.11,113.94-45.23,70.91-13.12,143.74-18.72,218.48-16.81,88.95-26.26,160.69-45.32,255.57-18.32,89.1,2.79,164.52,15.65,240.74,63.4,3.99-13.6,15.96-13.83,19.89,0,9.68-6.47,14.65-6.47,14.92,0-8.29,12-18.2,20.81-24.86,29.83l-9.33,6.69-109.84-50.58c-68.68,2.78-137.47-5.4-206.38-24.55-60.14-7.32-119.53,2.07-178.16,28.15-108.07-8.78-200.9,17.56-294.75,72.79l-16.89-2.67c-5.2-5.87-19.45-11.87-27.46-19.79C-24.36,106.54,151.2,59.63,218.6,39.89,376.6-6.37,514.46-7.31,677.27,11.44c60.29,6.94,192.16,28.11,241.18,59.61Z"/>
  <path class="cls-16" d="M113.03,250.03c-4.46-8.09-9.97-24.25-14.92-29.83,68.21-33.86,138.29-73.92,216.07-79.74,30.13-2.25,64.68,3.68,94.23-.23,25.14-3.32,56.41-20.87,82.41-26.97,100.81-23.66,199.94,39.48,304.62,23.6l118.02,53.51c-4.9,6.64-10.14,13.26-14.92,19.89-15.14-6.16-30.01-5.43-46.11-11.06-20.53-7.18-42.62-28.64-61.9-32.56-27.73-5.63-63.48,1.77-92.8-1.66-72.2-8.46-128.82-50.09-210.92-25.9-23.87,7.03-49.28,28.63-73.56,31.11-24.78,2.53-54.32-8.53-79.02-9.57-85.31-3.62-141.11,72.12-221.21,89.42Z"/>
  <path class="cls-5" d="M63.32,170.48c4.78-5.31,12.73-7.3,23.85-5.96l32.14-19.99c31.28-7.64,57.7-17.19,70.65-49.68-30.76,21.82-66.44,36.8-107.05,44.93-8.17,10.67-16.35,19.25-24.55,25.73-25.9-58.06,31.3-45.74,68.05-58.73,35.48-12.54,70.44-44.82,106.07-57.99,86.83-32.1,165.72-9.18,251.18-12.36,36.35-1.36,75.01-16.3,109.74-19.45,56.75-5.13,113.78,25.63,168.81,38.79,43.33,10.37,85.31,15.02,129.56,19.7,8.15.86,21.57,4.07,26.69-4.42,45.68,29.36,48.54,47.97,19.89,89.49h-14.92l-1.31-12.14c66.15-43.24-82.26-70.23-86.42-64.24,20.42,22.12,42.08,42.9,65,62.35l2.84,14.03c-52.16-4.75-81.36-40.41-141.5-44.94-67.13-5.06-98.71-6.61-165.62-18.33-95.11-16.65-111.09,18.41-187.97,28.06-63.46,7.96-136.6-4.38-202.08,11.7-38.11,9.36-96.8,53.39-134.87,42.42-6.82-1.97-6.5-7.5-8.18-8.97Z"/>
  <path class="cls-10" d="M842.73,231.25c-2.71,24.11-43.83,138.58-56.12,162.87-18.96,37.48-41.09,75.99-63.46,114.89-6.76-9.94-15.98-18.05-26.79-23.46-5.5-2.76-11.4-4.82-17.6-6.07-4.51-.9-9.17-1.37-13.94-1.37s-9.27.46-13.7,1.33c-15.64,3.08-29.42,11.33-39.49,22.9-2.69,3.07-5.1,6.38-7.22,9.89-4.04,6.69-7.01,14.11-8.65,22.01-9.81-11-22.64-18.4-36.48-21.65-16.86-3.97-35.21-1.77-51.39,7.57-10.61,6.13-19.03,14.59-24.97,24.36-.01,0,0,.01,0,.01-8.8,14.45-12.19,31.77-9.3,48.63.58,3.4,1.42,6.79,2.52,10.13-2.63-.87-5.28-1.57-7.95-2.11-9.44-1.93-19.08-1.87-28.3.05-10.38,2.13-20.26,6.59-28.79,13.15-.41.31-.81.62-1.22.95-2.97,2.39-5.77,5.04-8.36,7.95-2.27,2.53-4.37,5.26-6.28,8.17-.78,1.17-1.52,2.37-2.23,3.6-17.01,29.45-10.35,66.06,14.06,87.85-4.46.93-8.77,2.28-12.88,4.01-54.63-116.87-205.54-325.71-215.89-440.18-3.5-38.72,1.49-48.08,32.54-70.65,75.27-54.73,125.85-18.96,202.68-30.99,23.17-3.63,49.03-26.16,79.82-29.55,61.91-6.82,117.16,19.97,174.06,24.82,29.67,2.53,56.82-7.91,84.07-4.46,12.45,1.57,89.22,29.72,91.8,37.72,1.99,6.16.14,11.62-.54,17.63Z"/>
  <path class="cls-22" d="M903.53,160.54c-31.38-20.07-53.97-51.56-81.98-74.81-6.61-5.49-25.2-2.08-14.91-14.75,48.83,5.3,201.81,17.26,116.78,89.55-6.51,0-13.48.58-19.89,0Z"/>
  <path class="cls-21" d="M63.32,170.48c-1.69-1.48-4.04-2.88-4.97-4.97-.08-49.93,65.38-40.96,101.32-60.26,17.44-9.37,25.24-24.14,42.83-29.21,3.73,21.8-17.87,50.39-35.04,61.87-14.45,9.67-29.6,9.26-44.01,15.64-20.85,9.24-31.23,31.96-60.14,16.93Z"/>
  <path class="cls-13" d="M367.94,393.04c-138.49,25.75-125.98-172.32-9.27-157.53,85.47,10.83,90.88,142.36,9.27,157.53Z"/>
  <path class="cls-14" d="M696.36,485.55c-5.5-2.76-11.4-4.82-17.6-6.07-4.51-.9-9.17-1.37-13.94-1.37s-9.27.46-13.7,1.33c-15.64,3.08-29.42,11.33-39.49,22.9-2.69,3.07-5.1,6.38-7.22,9.89-4.04,6.69-7.01,14.11-8.65,22.01-9.81-11-22.64-18.4-36.48-21.65-5.88-7.22-10.44-16.09-13.41-26.71-12.8-45.8-5.03-80.21,43.39-95.22,87.99-27.28,124.59,42.45,107.1,94.89Z"/>
  <path class="cls-27" d="M482.92,544.53c-8.8,14.45-12.19,31.77-9.3,48.63-1.61,2.77-3.42,5.45-5.43,8.02-9.44-1.93-19.08-1.87-28.3.05-10.38,2.13-20.26,6.59-28.79,13.15-.41.31-.81.62-1.22.95-2.97,2.39-5.77,5.04-8.36,7.95-2.27,2.53-4.37,5.26-6.28,8.17-86.71-4.91-87.13-148.21,8.65-148.14,47.9.04,74.18,28.94,79.03,61.21-.01,0,0,.01,0,.01Z"/>
  <path class="cls-26" d="M760.66,333.37c-60.85,11-107.02-3.33-93.48-73.64,8.92-46.35,35.38-68.27,83.59-58.27,55.78,11.57,76.44,119.88,9.89,131.91Z"/>
  <path class="cls-3" d="M434.51,455.57c-6.01-5.31-40.56-20.97-33.09-31.48,30-22.42,85.13,27.47,67.24,54.79-10.97,16.75-29.07-18.82-34.15-23.32Z"/>
  <path class="cls-18" d="M527.12,383.42c-39.1,11.56-39.98-47.75-17.83-53.19,29.13-7.15,45.69,44.95,17.83,53.19Z"/>
  <path class="cls-19" d="M591.97,264.16c-52.94,18.29-40.38-64.07-1.78-46.45,18.92,8.64,19.43,40.35,1.78,46.45Z"/>
  <path class="cls-24" d="M287.02,200.34c8.3,24.56-29.78,78.82-54.75,62.21-8.92-7.47-4.7-8.34,0-15.08,2.68-3.84,34.82-40.78,37.06-42.49,6.07-4.62,10.07-5.74,17.69-4.64Z"/>
  <path class="cls-1" d="M620.17,279.89c26.45-.83,36.55,77.67,29.78,84.48-20.57,20.67-36.32-72.49-29.78-84.48Z"/>
  <path class="cls-15" d="M462.71,239.31c-20.39,7.1-42.78-4.22-32.75-27.64,18.78-43.85,69.42,14.87,32.75,27.64Z"/>
  <path class="cls-17" d="M324.36,508.44c-17.92.83-51.41-59.82-29.79-64.48,11.27-2.43,49.69,63.56,29.79,64.48Z"/>
  <path class="cls-8" d="M258.69,418.17c-34.56,10.24-39.72-41.28-3.92-39.3,27.05,1.5,20.98,34.24,3.92,39.3Z"/>
  <path class="cls-9" d="M520.71,260.02c-1.43,17.56-74.92,55.83-74.47,32.27.26-13.83,60.4-32.29,74.47-32.27Z"/>
  <path class="cls-25" d="M704.69,379.32c13.15-.43,24.99,5.52,36.64,10.54,7.51,3.24,24.19,11.71,27.95,19.21-22.97,2.61-59.22-2.95-64.58-29.75Z"/>
  <path class="cls-2" d="M630.17,225.15c-1.04-1.01-10.3-25.79-10.04-27.22,1.1-6.13,17.15-10.36,19.88-7.54,1.38,1.43,3.5,47.67-9.84,34.76Z"/>
  <path class="cls-4" d="M391.42,294.75c-28.2-11.37-42.7-15.74-69.22,2.87-57.42,40.3,22.32,84.73,46.68,51.43,5.81-7.94-3.44-18.7,17.56-14.48,6.62,45.72-73.14,46.88-88.96,21.84-4.09-6.48-10.03-46.13-9.78-54.44,1.23-39.93,95.99-54.87,103.71-7.22Z"/>
  <path class="cls-12" d="M611.63,502.34c-2.69,3.07-5.1,6.38-7.22,9.89-3.11-1.62-6.22-3.6-9.31-5.96-3.61-2.76-19.53-18.39-14.7-22.54,12.31-10.61,26.56,12.8,31.23,18.61Z"/>
  <path class="cls-12" d="M678.76,479.48c-4.51-.9-9.17-1.37-13.94-1.37s-9.27.46-13.7,1.33c8.31-11.61,13.35-12.33,4.9-34.14-10.12-26.12-31.93-42.69-60.73-36.22-9.49-6.71,47.76-23.05,73.9,8.18,16.15,19.29,17.33,42.77,9.57,62.22Z"/>
  <path class="cls-11" d="M439.89,601.23c-10.38,2.13-20.26,6.59-28.79,13.15-1.64-.2-3.22-.65-4.71-1.36l3.49,2.31c-2.97,2.39-5.77,5.04-8.36,7.95-15.73.47-31.74-.51-39.9-15.24l34.78,4.87-24.84-19.78c32.58,8.07,26.79,3.09,47.21-10.02,5.06-3.25,33-24.4,37.29-19.84,6.98,7.43-2.58,25.4-16.17,37.96Z"/>
  <path class="cls-6" d="M376.56,538.36c4.15-46.97,88.79-15.22,69.55,4.97-3.55,3.73-30.29-15.46-42.37-15.32-13.05.15-15.69,10.72-27.18,10.35Z"/>
  <path class="cls-7" d="M769.27,250.01c-6.21,5.89-27.58-20.89-36.55-19.34-2.61.45-36.14,32.89-38.26,36.5-23,39.08,50.9,46.15,74.79,27.61,5.78,27.81-48.51,28.32-66.97,24.73-31.12-6.07-25.54-69.06-7.5-86.81,23.91-23.51,89.27,3.28,74.49,17.31Z"/>
</svg>