<?xml version="1.0" encoding="UTF-8"?>
<svg id="Layer_1" data-name="Layer 1" xmlns="http://www.w3.org/2000/svg" viewBox="0 0 800 800">
  <defs>
    <style>
      .cls-1 {
        fill: #c8102f;
      }

      .cls-2 {
        fill: #474747;
      }

      .cls-3 {
        fill: #0fafbf;
      }

      .cls-4 {
        fill: #020101;
      }

      .cls-5 {
        fill: #fcc64f;
      }

      .cls-6 {
        fill: #fff;
      }

      .cls-7 {
        fill: #00c5c7;
      }

      .cls-8 {
        fill: #5e5e5e;
      }

      .cls-9 {
        fill: #fba529;
      }

      .cls-10 {
        fill: #373c41;
      }

      .cls-11 {
        fill: #930725;
      }
    </style>
  </defs>
  <path d="M613.1,56.57c9.53,16.1-8.89,20.59-23.08,19.67l-34.39-1.53c-12.2-1.39-19.25.95-28.19,7.56l3.12,1.49v640.61l-3.12,1.94c.14-1.22.54-3.05,1.4-3.12,10.57-.83,27.81-.81,38.39,0l2.26,3.12c-1.2,0-3.03-.27-3.12-1.06-1.77-16.86-1.35-49.19,0-66.4l3.12-1.85c-6.26-3.79,6.52-13.05,9.35-7.01,4.52-7.89,21.38,3.93,14.02,10.12,1.21,0,3.08.3,3.12,1.06.41,7.72,1.3,60.4,0,63.28l-3.12,1.85c22.58-4.57,45.94-4.45,68.53,0,12-3.9,23.81-3.85,35.82,0l-3.12-1.08v-229.07l3.12-1.91c-12.01,3.85-23.82,3.9-35.82,0-22.59,4.45-45.95,4.57-68.53,0l3.12,1.45v118.94l-3.12,1.88c6.67,3.32-8.75,16.29-12.46,10.12-4.75,6.84-13.65-3.98-13.98-10.25.18-37.16-.16-74.35-1.02-111.57.53-17.08,2.56-29.16,19.54-35.74,35.85-1.72,71.68-2.33,107.51-1.85,12.58.07,28.2,6.23,26.58,20.8,4.28-.12,4.78,6.67,4.75,9.99,1.06,76.15,0,152.25-3.19,228.3.15-1.2.48-2.96,1.38-3.12,3.33-.58,27.42-.62,30.67,0l2.22,3.12-3.12-1.09v-347.42l3.12-1.93c-11.49,3.85-22.78,3.9-34.27,0l-5.03,3.12c-28.08,1.93-60.86,2.44-88.93.84-17.44-.99-29.42-4.29-32.11-23.38-.7-50.9-.73-101.86-.11-152.87.14-7.92,10.74-23.56,18.7-17.73,35.26-1.02,70.79-1.28,106.59-.78l1.58-2.34h31.66l1.9,3.12-3.12-1.44v-101.81l3.12-1.87c-10.55-5.6-22.36-7.43-35.41-5.47l-1.97-3.09c-23.29,3.52-47.06,4.52-71.3,3-9.52-3.51-14.09-10.65-8.14-18.57,3.04-4.32,2.87-6.98,10.06-7.86,31.07,3.06,69.44-3.93,99.61.2,14.22,1.95,27.9,14.9,30.13,29.05l.37,648.33c9.3-.54,16.55-.99,21.81,7.78v7.79c-3.47,4.6-6.74,8.35-13.16,7.86H15.72c-9.77.39-16.56-8.95-11.43-17.82.9-1.55,5.6-5.62,6.83-5.62h66.19v-190.02c-12.69,7.75-22.71,24.48-38.57,12.88-3.21-2.34-28.3-34.57-29.24-37.72-2.04-6.8-1.35-14.49,4.13-19.37L502.63,115.09c3.21-4.41.68-28.29,2.14-36.8,2.97-17.24,17.38-28.11,34.29-29.56,13.95-1.2,52.45-1.92,65.37.15,6.64,1.06,5.84,3.69,8.66,7.69Z"/>
  <path class="cls-8" d="M721.27,183.92v191.94h-.7c-.13,35.6.11,71.25.11,106.87,0,2.82-1.67,4.99-1.67,5.27-3.8-9.84-10.12-15.92-21.02-17.14-34.35-3.85-77.62,1.92-112.51,1.19-8.66,3.91-14.92,9.96-15.99,19.84-4.15,38.42,3.12,83.9-.03,123.08-.17,5.5,5.4,11.87,10.93,11.65,4.95,2.94,5.43,22.87-1.56,23.36-3.28.36-9.34,3.71-9.34,7.01v69.31h-42.05V82.27c0-4.68,7.26-9.39,11.78-10.03,19.41-2.71,48.45,3.51,66.49-.51,7.25-1.62,8.02-8.77,7.39-15.16,1.02,1.45,1.45,4.45,2.56,4.74,1.78.47,19.68.17,20.54-.39.19-.13.91-3.06,1.82-4.35-1.23,7.22,1.54,13,8.6,15.54,23.6.33,47.25-.31,70.83.04-.28,2.84,3.12,8.44,3.12,10.12v102.02c.25-.11.48-.23.7-.37Z"/>
  <path class="cls-8" d="M720.57,82.27c0-1.68-3.4-7.28-3.12-10.12,4.15.28,7.49,8.15,3.12,10.12Z"/>
  <path class="cls-8" d="M720.57,375.86c4.14,37.05,4.42,75.53,2.13,111.7l-3.69.44c0-.28,1.67-2.45,1.67-5.27,0-35.62-.24-71.27-.11-106.87Z"/>
  <path class="cls-8" d="M720.57,184.29v-102.02c1.23.13,3.08.57,3.11,1.43.97,28.43,1.35,61.62,0,89.98.99,5.26.18,8.67-2.41,10.24-.22.14-.45.26-.7.37Z"/>
  <path class="cls-1" d="M468.25,235.68c3.06-1.04,4.27.32,4.47,3.34,2.24,79.06.85,159.19-1.72,238.47-.39,12.15-15.77,28.06-26,33.71-4.37,2.41-14.21,7.59-16.46,1.71,0,1.21-.3,3.07-1.06,3.12-15.96.9-38.36,1.13-54.16,0-5.16,1.01-8.3-.03-9.42-3.12-.62-65.49-.62-131.42,0-197.8,33.62-25.77,66.89-52.09,100.51-77.88,1.39-1.06,3.32-1.15,3.85-1.55Z"/>
  <path class="cls-5" d="M661.38,494.23l3.12,1.45v104.14l-3.12,1.88-1.76,3.05c-14.03,2.69-7.06,15.42,1.76,20.31,1.23.13,3.09.58,3.12,1.45.99,31.55.99,66.35,0,97.91l-3.12,1.88c-22.82.09-45.71-.07-68.53,0v-66.19c0-6.57-7.62-10.82-14.02-10.12,3.15-7.1.94-15.7,1.56-23.36,3.6-.14,12.46-6.75,12.46-10.12v-122.26c22.82.07,45.71-.09,68.53,0Z"/>
  <polygon class="cls-10" points="504.07 177.28 51.55 526.88 43.98 518.99 35.43 506.13 504.07 143.79 504.07 177.28"/>
  <path class="cls-1" d="M226.84,421.03l112.13-85.65c-.54,59.14.75,118.41,0,177.55l-1.46,3.12-110.04-.08-1.44-1.96c-.45-31.1-.18-62.09.79-92.97Z"/>
  <rect class="cls-8" x="100.68" y="554.97" width="403.39" height="37.38"/>
  <path class="cls-11" d="M468.25,235.68c11.87-9.11,22.48-20.7,35.82-28.04v323.96h-141.73l1.56-216.49v197.8h64.64c16.74,0,37.5-19.99,39.53-36.79,1.09-76.83,4.5-154.96,1.81-231.95-.1-2.96.15-5.9-1.62-8.49Z"/>
  <path class="cls-2" d="M754.83,91.84v634.46h-34.26c-.09-137.7.08-275.5.07-413.24,0-6.97-1.63-13.33-1.63-18.2,0-.51,1.67-4.44,1.67-9.54,0-64.49-.24-129.03-.11-193.49h.7c11.17.09,22.39-.07,33.56,0Z"/>
  <path class="cls-9" d="M661.38,494.23c11.92.05,23.91-.04,35.82,0v232.07c-11.92.04-23.91-.05-35.82,0v-101.24l.84-3.3c8.38-2.47,8.55-14.51.01-16.82l-.85-3.25v-107.47Z"/>
  <path class="cls-7" d="M357.67,707.61c-.38-30.6.28-61.29,0-91.89h62.3c-.28,30.6.38,61.3,0,91.89,0,1.21-.29,3.07-1.05,3.12-9.59.58-52.95,1.81-59.42,0l-1.83-3.12Z"/>
  <path class="cls-7" d="M184.79,706.05c-.33-30.08.24-60.25,0-90.34h62.3c-.28,30.6.38,61.3,0,91.89-.04,1.2-.35,3.04-1.13,3.09-14.52.89-45.36.53-59.42-1.49l-1.75-3.16Z"/>
  <path class="cls-7" d="M332.75,615.71c.56,30.77.56,61.4,0,91.89,0,1.2-.28,3.05-1.05,3.12-13.83,1.21-44.49,1.66-57.86,0l-1.83-3.12c-.56-30.33-.56-60.96,0-91.89h60.74Z"/>
  <path class="cls-7" d="M102.24,615.71h59.19c-.3,30.59.37,61.29,0,91.89,0,1.21-.3,3.08-1.05,3.12-6.92.36-55.5,1.96-57.52-.08-1.32-31.33-1.52-62.97-.61-94.92Z"/>
  <path class="cls-3" d="M444.89,615.71l3.11,1.42-.04,85.96c13.1-4.08,17.74-14.43,18.56-27.38,1.2-18.83.99-37.99-.15-56.78l1.88-3.22c11.92-.1,23.91.08,35.82,0v110.58h-60.74l1.56-110.58Z"/>
  <path class="cls-2" d="M754.83,80.71v105.13h-33.56v-1.92c-.22.14-.45.26-.7.37v-102.02c0-1.68-3.4-7.28-3.12-10.12,7.52.11,37.38-3.12,37.38,8.56Z"/>
  <path class="cls-1" d="M110.03,511.36c29.64-24.21,60.47-47.13,91.1-70.1,1.23,23.78,1.09,47.83.79,71.66l-1.48,3.09c-29.53-.5-59.07-1-88.62-1.5l-1.79-3.15Z"/>
  <path class="cls-11" d="M226.84,421.03v91.9s112.14,0,112.14,0c-.08,6.21.06,12.48,0,18.69h-113.7l-.09-106.86c-.47-1.99.97-2.68,1.65-3.72Z"/>
  <path class="cls-7" d="M468.25,615.71c1.77,2.59,1.53,5.53,1.62,8.49.45,14.96,1,33.71.01,48.43-.76,11.27-2.17,21.57-11.77,28.73-2.42,1.81-12.84,8.39-13.24,2.4v-88.05c7.78-.05,15.61.07,23.37,0Z"/>
  <path class="cls-11" d="M201.92,512.92c-.08,6.21.06,12.48,0,18.69h-101.24c-1.71-14.65.56-13.07,9.35-20.25l91.89,1.56Z"/>
  <polygon class="cls-3" points="272.01 615.71 272.01 707.61 332.75 707.61 332.75 615.71 334.31 726.3 270.45 726.3 272.01 615.71"/>
  <path class="cls-3" d="M102.24,615.71v91.9s59.19,0,59.19,0c-.08,6.21.06,12.48,0,18.69h-60.74l1.56-110.58Z"/>
  <path class="cls-3" d="M247.09,707.61c-.08,6.21.06,12.48,0,18.69h-62.3c-.05-6.73.07-13.52,0-20.25l62.3,1.56Z"/>
  <path class="cls-3" d="M419.97,707.61c-.08,6.21.06,12.48,0,18.69h-62.3c-.06-6.21.08-12.48,0-18.69h62.3Z"/>
  <path class="cls-4" d="M661.38,601.7c13.56,1.12,13.75,21.74,0,23.36-15.12,1.78-18.66-24.9,0-23.36Z"/>
  <path class="cls-6" d="M732.54,201.83c-.65.71-2.07,1.43-3.03,1.57-3.8.55-9.19.14-13.2.41-50.72,3.29-99.82,11.69-149.36,22.4-5.62-1.12-3.45-3.2-.46-5.64,13.7-11.16,30.36-19.08,46.29-26.52,4.76-6.57,8.51-13.89,13.7-20.13l50.51-12.74c2.27-.15,3.08-.48,4.14,1.66,1.34,2.7,3.38,15.89,4.84,16.86,13.83,3.77,27.95,6.91,40.94,13.12,3.36,1.61,9.8,4.41,5.62,9.01Z"/>
</svg>