<?xml version="1.0" encoding="UTF-8"?>
<svg id="Layer_1" data-name="Layer 1" xmlns="http://www.w3.org/2000/svg" viewBox="0 0 800 800">
  <defs>
    <style>
      .cls-1 {
        fill: #c8102f;
      }

      .cls-2 {
        fill: #706f7f;
      }

      .cls-3 {
        fill: #8a8895;
      }

      .cls-4 {
        fill: #b8bac0;
      }

      .cls-5 {
        fill: #fb636e;
      }

      .cls-6 {
        fill: #fcc64f;
      }

      .cls-7 {
        fill: #fc636e;
      }

      .cls-8 {
        fill: #f8626c;
      }

      .cls-9 {
        fill: #fba529;
      }

      .cls-10 {
        fill: #f9626d;
      }

      .cls-11 {
        fill: #930725;
      }
    </style>
  </defs>
  <path d="M479.15.5c6.31,1.41,12.32,3.08,17.16,7.66,12.11,21.46,24.63,42.56,37.56,63.3l150.36.69c16.43,3,25.07,9.19,29.43,25.66,2.16,8.15,2.51,59.74-1.31,65.24-2.97,4.28-7.77,9.28-12.05,4.11-2.17,7.13-19.35-1.64-12.46-7.01-1.21-.33-3-.83-3.12-1.79-.53-4.57-.36-36.89.98-38.81.6-.86,1.23-1.67,2.14-2.24-3.49,5.22-7.66,10.3-12.51,15.24-.53,25.18-.36,50.24.51,75.19,4.8,7.6,8.8,15.35,12,23.27-3.11-6.44-6.17-19.99,0-24.14-7.56-4.35,9.71-14.37,12.46-7.01,11.3-7.76,15.96,12.76,15.05,22.7-1.23,17.72-1.51,35.37-.82,52.97,12.58,28.87,19.95,58.53,26.8,89.94,4.59,21.06,7.07,47.71-10.58,63.47-4.91,4.39-13.33,11.65-19.55,8.44,1.22-.01,3.09.32,3.12,1.08,1,36,.99,75.13,0,111.26,1.11,6.48.07,10.82-3.12,13.04.15-1.21.51-3.01,1.39-3.12,7.2-.89,33.92-1.11,40.75,0l2.25,3.12c1.22-4.2,7.68-1.54,10.83-.13,14.76,6.64,20.48,19.59,20.27,35.94-.21,58.42-.51,116.85-.89,175.27-2.12,12.02-9.96,24.34-23.35,24.35-240.8.21-481.59.19-722.4,0-17.76-.01-24.76-20.41-24.24-36.05-.24-60.4.4-120.45,1.93-180.15,2.12-5.86,6.2-10.82,11.02-14.75,4.26-3.48,14.47-10.58,18.16-4.48.15-1.21.51-3.01,1.39-3.12,7.2-.89,33.92-1.11,40.75,0l2.25,3.12-3.12-1.07v-137.99l3.12-1.89c-5.62-.26-12.48-12.8-15.46-18.48-21.64-41.27-44.06-99.24-44.19-146.05-.1-35.55,24.92-48.26,56.84-48.98-.18-30.1-.56-60.22-1.15-90.34.47-25.77,3.79-40.47,30.88-45.79l150.42-.7,1.89-1.83,35.8-61.65c4.88-4.41,10.74-6.1,17.04-7.49h155.75Z"/>
  <path class="cls-4" d="M195.69,212.32c-1.23-.14-3.05-.56-3.12-1.44-1.25-18.36-2.01-52.14,0-69.9l3.12-1.87c147.82-1.37,303.47-1.37,451.68,0,1.34,11.76,1.16,24.34.18,36.36l-1.74,1.02c-26.72-23.49-46.1-28.13-72.45-.02-67.77,72.3-127.57,156.96-195.41,229.79-6.39,8.88-11.59,18.39-12.55,29.5-1.22,14.18-1.89,56.67.74,69.45,4.11,19.99,28.34,31.55,47.29,25.3,35.34-11.66,22.82-54.37,25.16-82.31.7-8.32,1.9-10.27,10.96-10.06-7.46,46.45,61.49,61.33,72.15,16.85.93-3.88.55-16.85,3.4-16.85h123.82v124.6h-181.45c-.44,0-7.43,2.04-8.43,2.47-12.35,5.35-11.02,20.23-15.9,30.82-15.72,34.09-67.99,34.1-83.71,0-8.51-18.46-1.61-31.22-28.95-33.35-41.87-3.25-91.92.19-134.78.06l-3.14-1.37c-.6-24.66-1.01-49.32-1.23-73.98l2.81-4.09c58.66-72.62,125.05-142.21,182.19-215.75,10.43-13.42,19.01-22.92,9.7-40.78-4.76-9.13-14.97-13.24-24.66-14.28-48.69-5.24-114.92-.04-165.68-.19Z"/>
  <path class="cls-1" d="M759.5,670.23h-474.26c-7.36,0-13.3,21.28,4.64,23.4,7.02.83,40.21-1.42,42.66.17,14.75,74.18,123.11,74.15,137.27-.2h289.7v77.1c0,.28-3.62,3.89-3.89,3.89H189.46l25.08-80.83c1.18-1.03,17.67.51,22.1-.49,13.99-3.15,9.27-23.04,1.88-23.04h-47.5l25.95-84.18,113.24.28c3.25,1.1,5.39,13.91,7.18,17.74,25.28,54.35,102.54,54.34,127.8,0,2.21-4.76,3.21-16.95,8.5-17.97l281.22.72c1.17.38,4.6,2.51,4.6,3.19v80.21Z"/>
  <path class="cls-6" d="M652.04,414.8h-24.92c-6.67-53.31-82.89-53.41-88.84-.07-16.38-1.56-34.36,1.42-38.19,20.22-2.06,10.1,2.14,23.73-13.95,23.62-14.85-.1-12.04-16.48-14.7-25.94-8.13-28.88-51.27-20.21-55.77,6.68-2.5,14.95,3.47,53.81-3.14,63.84-6.02,9.14-18.85,7.56-23.01-2.61.29-19.87-2.8-43.7-.7-63.16.45-4.18,1.77-8.03,4-11.58l44.26-52.33c45.27,24.8,91.88-27.81,57.91-68.5l69.05-80.17c53.05,48.86,84.09,117.85,88,189.99Z"/>
  <path class="cls-6" d="M142.73,352.5c.07-1.98,5.13-4.68,5.95-7.34,2-6.54-9.97-32.45-12.59-41.31-6.44-21.8-11-45.39-10.49-68.16h22.58c3.38,5.33,3.11,11.21,6.15,17.21,14.98,29.58,60.59,31.32,77.48,2.55,3.92-6.69,4.61-13.99,8.47-19.57,41.29.44,83.14-1.92,124.15,1.22,1.17.72,2.11,2.73,2,4.02-.49,5.79-23.76,27.4-27.4,34.37-35.61-18.28-75.52,8.72-67.87,49.03,1.54,8.11,7.18,12.84,9.4,20.18l-66.2,80.98c-2.28.62-2.59-.61-3.9-1.51-3.82-2.65-11.99-11.68-15.56-15.59-5.81-6.36-20.87-29.35-26.83-30.84-2.87-.72-5.71.04-8.19-.33-3.93,1.88-7.64-.62-11.14-7.49-3.08-4.02-10.78-14.4-6-17.43Z"/>
  <path class="cls-9" d="M142.73,352.5c-.09,2.63,12.86,24.27,17.13,24.92-3.85,2.88-7.65,6.14-7.33,11.45.73,12.13,35.54,44.89,44.6,54.96-9.51,11.82-20.22,31.71-38.43,24.31-7.18-2.92-33.21-36.84-39.05-45.06-27.85-39.19-49.02-88.21-57.42-135.71-6.05-34.15-10.81-57.25,34.63-51.76,8.92,1.08,4.58,10.55,5.39,17.97,2.4,21.93,7.04,44.55,13.94,65.49,4.15,12.57,9.85,37.2,26.54,33.43Z"/>
  <path class="cls-9" d="M675.41,414.78c-3.73-79.25-38.02-154.42-96.3-207.9,9.27-10.24,17.73-28.79,34.4-25.36,11.16,2.29,35.63,35.57,42.9,45.88,28.29,40.11,48.32,85.71,57.42,134.15,7.32,38.96,11.51,58.13-38.43,53.23Z"/>
  <path class="cls-11" d="M670.73,98.62l-13.15,14.1c-168.87,3.48-338.68.39-507.91,1.55-6.5-.87-13.35-10.79-17.83-15.66h538.9Z"/>
  <path class="cls-6" d="M166.1,668.67c-27.61.45-55.12.45-82.55,0l-3.12-1.42v-77.72l3.12-1.85,103.97-.88c3.17-.19,3.41,1.37,1.94,4-6.82,26.26-16.05,51.78-23.36,77.88Z"/>
  <path class="cls-6" d="M83.55,693.59c35.8-.12,71.67.07,107.47.02l-25.07,80.82c-26.91.14-53.92.37-80.84.16l-3.14-1.36c-.5-25.9-1-51.8-1.49-77.72l3.08-1.91Z"/>
  <polygon class="cls-1" points="504.07 75.26 298.48 75.26 324.28 28.63 328.1 24.67 473.38 24.19 478.89 29.58 504.07 75.26"/>
  <path class="cls-2" d="M195.69,212.32c-14-.04-28.06.03-42.05,0v-72.42c0-.17,2.17-2.34,2.34-2.34h492.95l-.02,42.05c-1.87.13-2.24-2.35-3.1-3.11,3.57-11.6.6-25.29,1.56-37.38H195.69v73.2Z"/>
  <path class="cls-9" d="M166.1,668.67l-123.04,1.56v-80.21c0-.68,3.42-2.81,4.6-3.19l142.58-.71c2.77,1.43-.58,3.93-.77,4.68.87-4.72-2.38-3-5.38-3.12-33.41-1.32-67.12.98-100.53,0v80.99h82.55Z"/>
  <path class="cls-9" d="M83.55,693.59l1.56,80.99c-10.52-.08-28.93,1.69-38.16,0-1.29-.24-3.89-1.24-3.89-2.34v-78.65c13.48-.03,27.02.04,40.5,0Z"/>
  <path class="cls-2" d="M195.69,562.76c-14-.04-28.06.03-42.05,0v-71.65c13.93,3.67,29.55,1.98,40.5-7.79l1.56,79.43Z"/>
  <rect class="cls-11" x="672.28" y="438.16" width="15.58" height="124.6"/>
  <path class="cls-11" d="M700.32,199.86c-4.23-.23-12.46,2.22-12.46,7.01v24.14c-5.37-6.5-14.9-17.45-15.67-25.6-2.18-23.12,1.79-49.75.13-73.27.69-3.62,11.15-13.99,15.54-14.83v42.83c0,4.79,8.23,7.25,12.46,7.01-2.57,9.81-2.57,22.9,0,32.71Z"/>
  <path class="cls-11" d="M130.27,562.76h-15.58v-105.91c2.56,1.51,15.58,15.22,15.58,16.35v89.56Z"/>
  <path class="cls-11" d="M130.27,212.32h-15.58v-96.57c2.25,1.72,15.58,13.72,15.58,14.8v81.77Z"/>
  <path class="cls-3" d="M384.15,693.59c20.22-.15,40.51.1,60.74,0-1.61,15-19.73,30.78-34.26,31.14-12.42,2.22-17.46-4.36-23.09-14.19-2.38-4.16-8.06-14.22-3.39-16.96Z"/>
  <path class="cls-2" d="M384.15,693.59c3.45,12.32,11.97,31.52,26.48,31.15-23.57,6.88-46.83-9.17-54.51-31.13,9.33-.08,18.71.05,28.03-.02Z"/>
  <path class="cls-8" d="M214.38,235.68c-3.4,22.85-37.1,22.85-40.5,0h40.5Z"/>
  <path class="cls-10" d="M602.2,414.8h-40.5c4.44-22.53,36.97-22.58,40.5,0Z"/>
  <path class="cls-7" d="M480.69,324.47c9.14,18.09-7.61,36.12-26.45,31.14-1.31-1.19,4.27-7.9,5.42-9.36,4.75-6.07,11.38-13.37,16.65-19.17,1.38-1.52,1.42-3.33,4.38-2.61Z"/>
  <path class="cls-5" d="M321.84,293.32c1.2,1.06-3.04,6.29-4.03,7.63-4.3,5.81-12.02,15.3-16.96,20.42-1.62,1.68-2.73,3.63-5.46,3.08-6.72-19.59,6.34-34.32,26.45-31.13Z"/>
  <path d="M575.31,718.88c42.2,2.78,92.28-5,133.57-.37,18.25,2.05,16.62,21.66,3.2,23.44l-138.67-.12c-12.56-4.6-11.52-20.56,1.9-22.96Z"/>
  <path d="M573.72,616.05l136.76-.37c15.39,1.66,15.81,21.6,0,23.43-41.35,4.79-91.69-3.68-134.01,0-13.92-1.34-16.08-18.53-2.75-23.06Z"/>
  <path d="M562.95,278.13c46.88-4.1,53.39,66.71,10.29,72.67-53.55,7.4-58.61-68.44-10.29-72.67Z"/>
  <path d="M203.07,299.92c52.23-8.37,59.07,66.93,11.95,72.69-47.7,5.83-56.22-65.59-11.95-72.69Z"/>
  <path d="M343.21,39.77l114.83-.24c13.59,2.13,13.79,21.55.17,23.35l-115.24-.18c-12.52-1.8-11.08-20.41.23-22.93Z"/>
  <path class="cls-5" d="M564.46,301.37c16.74-2.14,19.23,22.26,7.05,25.88-21.34,6.34-25.55-23.52-7.05-25.88Z"/>
  <path class="cls-5" d="M220.11,326.51c11.52,12.6-6.64,30.8-19.26,19.26s7.19-32.46,19.26-19.26Z"/>
</svg>