<?xml version="1.0" encoding="UTF-8"?>
<svg id="Layer_1" data-name="Layer 1" xmlns="http://www.w3.org/2000/svg" viewBox="0 0 1000 615.75">
  <defs>
    <style>
      .cls-1 {
        fill: #930725;
      }
    </style>
  </defs>
  <path class="cls-1" d="M496.74,321.05c-25.19-10.94-39.17-22.89-29.48-52.16,17.32-52.29,152.06-118.29,202.99-135.81,8.93-3.07,47.47-11.12,50.69-13.34,3.77-2.6,2.45-8.22,2.58-12.11-30.29,6.54-10.9-46.34-3.68-61.02,30.57-62.17,130.61-63.54,155.11,4.26,4.32,11.96,4.19,24.5,7.69,34.99,2.09,6.25,10.5,12.3,8.91,17.7-2.28,7.72-24.49,2.15-26.56,4.18-1.12,1.09-4.44,22.3-8.59,30.09-9.35,17.57-32.31,28.82-51.82,30.85-7.58.79-24.99-2.23-27.67-1.11-10.21,4.26-41.98,45.5-53.42,54.74l83.47-21.88c11.66-18.4,26.72-36.39,48.63-18.16,17.53,14.58-1.31,22.68-3.66,31.34-1.97,7.23,17.16,47.08,21,58.03,8.1,23.1,16,46.47,21.76,70.29,45.28,7.19,83.09,41.14,99.54,83.19,1.65,4.22,10.27,23.97,2.71,23.97h-41.35c57.93,79.27-57.11,191.07-139.24,161.91-33.81-12-48.58-55.39-34.16-87.22h-326.8c-12.48,22.79-22.44,41.56-42.61,58.76-64.22,54.76-166.51,44.24-145.47-58.74-11.77-2.1-43.29,6.27-42.78-9.18,1.63-49.18,77.7-107.8,114.81-133.58-19.86-3.97-30-16.71-37.38-34.62-8.62-20.92-13.28-28.66,11.95-30.83,19.01-1.63,121.09-2.15,132.89,3.37,5.71,2.67,12.61,10.8,19.8,14.88,22.28,12.62,55.2,23.37,80.84,24.54,16.58-.31,31.62,3.21,45.13,10.56-39.45,38.32-81.94,74.13-127.46,107.45-1.97,2.34,11.96,5.99,14.92,6.21,55.07,4.06,118.73,3.61,174.22.35,2.19-.13,31.75-22.38,31.7-28.07,23.88-21.61,46.34-45.36,63.87-71.63,34.71-30.52,54.69-71.13,61.72-114.24-2.07-3.23-6.43-33.48-5.34-34.97,1.32-1.79,3.35-2.83,5.34-3.71-4.59,8.87-11.56,9.2-20.69,8.45-12.56,10.03-27.38,13.1-43.33,15.46-26.19,11.21-53.83,20.12-82.46,24.04-1.65,4.34-8.54,3.48-13.01,2.75-33.08-5.41-20.97-27.28-9.45-47.27,6.87-11.92,31.44-38.25,31.44-38.25-28.17,18.83-52.45,41.11-72.83,66.84,20.58,7.6,41.18,15.25,61.8,22.94l1.16,4.74c25.68,5.21,88.73,44.93,59.3,75.11-21.63,14.66-42.71,30.01-63.22,46.05-14.77,3.85-24.48,11.12-31.62,22.03,11.84,4.99,23.02,11.17,33.53,18.53,3.68-3.76,5.32-2.07,2.67,2.67,5.11,10.09-15.65,26.62-17.13,26.68-39.44,1.65-85.61,1.64-125.08,0,0,0-12.24-23.82-4.47-31.2,23.16-19.68,47.36-37.18,72.62-52.52,16.67-12.45,30.55-25.62,43.05-39.21-43.45-9.01-86.24-18.76-128.36-29.26l-8.7-7.88Z"/>
  <path class="cls-1" d="M261.35,84.32c30.2-4.68,128.05-4.27,159.36-.7,14,1.59,23.66,7.69,25.41,22.61,6.24,53.27-3.75,120.41-1.33,174.87-4.53,12.29-8.5,14.89-21.29,16.06-40.4,3.69-122.58,3.69-162.98,0-13.46-1.23-20.92-5.58-22.61-20.08-6.21-53.41,4.62-118.61.21-173.31,2.66-12.97,11.12-17.58,23.23-19.45Z"/>
  <path class="cls-1" d="M4.55,507.79c-5.72-1.78-7.27-21.34,2.67-21.34h168.07c8.14,0,8.13,21.34,0,21.34H4.55Z"/>
  <path class="cls-1" d="M47.23,377.07h170.73c4.9,0,15.73,17.67-8.26,21.09-30.63,4.36-120.02,3.56-151.96.41-14.26-1.4-19.91-9.26-10.52-21.5Z"/>
  <path class="cls-1" d="M.54,291.7c.27-7.18-2.84-17.62,6.67-18.68,51.3,3.87,109.84-5.12,160.22-.15,20.8,2.05,15.04,18.83,10.52,18.83H.54Z"/>
  <path class="cls-1" d="M492.74,64.94h170.73c5.46,0,5.46,18.67,0,18.67h-173.4c-6.31,0-4.61-16.47,2.67-18.67Z"/>
  <path class="cls-1" d="M888.93,267.68c-3.11-2.4-17.64-44.94-14.81-50.66,3.61-7.28,54.02-12.41,47.49,7.16-1.72,5.15-26.65,48.16-32.68,43.51Z"/>
</svg>