<?xml version="1.0" encoding="UTF-8"?>
<svg id="Layer_1" data-name="Layer 1" xmlns="http://www.w3.org/2000/svg" viewBox="0 0 378.55 800">
  <defs>
    <style>
      .cls-1 {
        fill: #fff;
      }
    </style>
  </defs>
  <path class="cls-1" d="M215.51.15c.76,4.29-1,7.37-2.88,10.96-25.3,48.46-47.83,71.96-61.44,130.21-34.14,146.12,42.58,162.35,114.71,256.02,99.36,129.03,4.26,254.01-72.04,364.1-2.33,3.37-28.99,43.54-33.8,38.04,20.24-85.85,85.43-160.01,70.29-253.11-16.28-100.1-127.18-155.17-145.26-250.63C64.08,184.86,133.55,80.89,206.66,5.15c2.62-2.72,4.43-5.89,8.85-4.99Z"/>
  <path class="cls-1" d="M122.21,784.35c-24.49-4.93-41.94-24.24-49.81-47.25-32.2-94.26,65.96-168.81,15-269.69-3.51-6.94-12.16-11.51-10.56-20.93,49.83,8.5,94.37,72.26,90.46,121.98-3.09,39.32-28.15,71.79-41.25,107.52-13.03,35.52-17.05,72.19-3.84,108.37Z"/>
</svg>