<?xml version="1.0" encoding="UTF-8"?>
<svg id="Layer_1" data-name="Layer 1" xmlns="http://www.w3.org/2000/svg" viewBox="0 0 378.55 800">
  <defs>
    <style>
      .cls-1 {
        fill: #fff;
      }
    </style>
  </defs>
  <path class="cls-1" d="M182.34,800l-17.36-18.46c-45.61-67.26-62.05-133.47-48.66-214.43,10.56-63.83,52.94-126.57,69.77-189.83,20.16-75.81,10.47-148.2-9.95-222.49,58.9,37.04,100.28,102.93,109.75,172.07,19.12,139.58-75.62,211.05-104.34,332.67-11.06,46.82-12.45,93.92.79,140.47Z"/>
  <path class="cls-1" d="M212,3.87c-5.52.06-10.15,10.79-12.78,15.69-18.5,34.54-33.84,76.66-40.42,115.33-17.9,105.18,24.85,187.98-18.42,298.04-1.67,4.24-8.44,24.72-14.89,18.49,5.15-91.56-53.62-189.37-36.36-279.89,10.12-53.08,56.6-130.04,100.84-161.23,5.67-4,19.08-16.59,22.02-6.44Z"/>
</svg>