<?xml version="1.0" encoding="UTF-8"?>
<svg id="Layer_1" data-name="Layer 1" xmlns="http://www.w3.org/2000/svg" viewBox="0 0 378.55 800">
  <defs>
    <style>
      .cls-1 {
        fill: #fff;
      }
    </style>
  </defs>
  <path class="cls-1" d="M280.54,800c-73.45-6.31-98.04-73.2-92.7-139.08,6.42-79.2,91.53-151.25,38.33-236.68,4.17-20.75,41.55,21.69,46.44,27.07,43.36,47.75,70.75,105.91,45.67,170.51-10.73,27.64-35.62,50.71-43.23,81.52-8.47,34.28-.15,63.09,5.5,96.66Z"/>
  <path class="cls-1" d="M197.41,544.1c-.42-49.77-57.18-60-91.71-79.42-46.25-26.02-64.52-73.84-57.83-126.06,9.33-72.86,83.94-96.63,115.98-155.95,14.88,4.59,9.27,24.64,6.4,35.25-11.48,42.44-53.82,81.77-46.23,129.28,7.31,45.76,84.75,77.24,92.21,144.47,1.95,17.56,1.09,45.97-18.82,52.43Z"/>
  <path class="cls-1" d="M217.7,260.55c-19.89,24.59-44.64,49.32-49.14,82.04-4.7.29-5.64-11.49-5.96-14.75-6.09-60.47,52.24-104.53,56.82-166.38,3.03-40.97-27.56-84.8-14.72-126.62,3.86-12.57,20.33-38.26,35.69-34.45,10.1,2.5-3.18,22.2-4.32,30.61-5.43,40.09,33.84,71.2,37.68,115.26,5.04,57.76-25.54,76.57-56.05,114.29Z"/>
</svg>