<?xml version="1.0" encoding="UTF-8"?>
<svg id="Layer_1" data-name="Layer 1" xmlns="http://www.w3.org/2000/svg" viewBox="0 0 378.55 800">
  <defs>
    <style>
      .cls-1 {
        fill: #fff;
      }
    </style>
  </defs>
  <path class="cls-1" d="M173.33,765.36c-4.86-8.63-13.15-17.08-18.36-26.44-26.63-47.88-31.48-108.46-6.07-157.97,23.23-45.27,80.3-74.88,87.75-129.82,6.15-45.31-24.74-86.84-35.16-128.6,4.68-.82,7.65.43,11.7,2.35,32.36,15.39,80.55,61.95,89.42,97.44,30.72,122.99-116.7,156.62-106.21,285.39,2.28,28.02,16.41,53.2,17.87,80.67-16.68,1.4-25.36-11.79-38.38-17.92.65-3.4-1.87-3.89-2.56-5.12Z"/>
  <path class="cls-1" d="M163.12,135.66c7.24-5.77,9.98,21.11,9.93,24.03-.76,40.28-39.83,72.12-35.26,112.64,4.26,37.77,42.01,65.95,55.41,100.72,20.54,53.31,15.65,146.68-46.67,169.61-8.14-2.18,3.94-25.95,3.95-34.56.1-57.66-76.52-118.12-82.06-179.22-9.13-100.75,54.34-108.63,89.99-178.69,1.76-3.46,4.11-14.05,4.71-14.52Z"/>
  <path class="cls-1" d="M244.99,0c-16.78,43.11,24.78,68.41,35.97,106.1,23.79,80.08-39.12,98.89-85.94,144.68l-16.54,30.77c-31.25-62.25,33.56-104.4,49.32-156.69,12.07-40.03,1.3-45.52-3.05-80.27-1.95-15.57.67-42.85,20.25-44.58Z"/>
  <path class="cls-1" d="M296.18,570.83c-10.2,30.56.63,59.95-2.82,90.59-5.05,44.91-41.9,88.87-17.61,135.9.14,11.01-30.98-15.26-33.39-17.81-54.45-57.67-15.26-147.94,34.25-195,2.01-1.91,17.91-15.58,19.57-13.68Z"/>
</svg>