<?xml version="1.0" encoding="UTF-8"?>
<svg id="Layer_1" data-name="Layer 1" xmlns="http://www.w3.org/2000/svg" viewBox="0 0 378.55 800">
  <defs>
    <style>
      .cls-1 {
        fill: #fff;
      }
    </style>
  </defs>
  <path class="cls-1" d="M183.83,800c-43.15-13.57-74.84-63.38-84.14-106.26-27.36-126.14,77.82-168.05,115.17-262.72,39.53-100.2-48.57-110.43-69.16-188.93-8.67-33.04-8.23-73.68,12.25-102.36,9.11,1.16,3,7.52,3.58,12.14,14.4,115.44,124.47,122.4,154.14,206.46,45.23,128.17-122.08,211.58-140.23,330.76-5.77,37.91,3.57,73.51,8.39,110.93Z"/>
  <path class="cls-1" d="M129.75,103.67c-10.82,30.94-26.67,62.49-29.24,95.8-6.46,83.65,60.88,98.13,78.18,162.87,13.33,49.86-.38,121.85-45.52,151.49l10.21-61.9c5.5-80.59-17.09-82.43-60.87-135.37-54.22-65.57-33.45-140.28,23.83-194.63l23.42-18.25Z"/>
  <path class="cls-1" d="M289.75,256.89c-45.27-13.05-86.32-56.71-90.1-104.81-4.1-52.1,30.29-99.33,24.78-152.08,15.57,18.83,28.62,49.7,33.16,73.86,10.89,57.86-18.59,92.82,12.97,151.54,2.17,4.04,20.85,29.97,19.18,31.5Z"/>
</svg>