<?xml version="1.0" encoding="UTF-8"?>
<svg id="Layer_1" data-name="Layer 1" xmlns="http://www.w3.org/2000/svg" viewBox="0 0 1000 1000">
  <defs>
    <style>
      .cls-1 {
        fill: #ed1c24;
      }
    </style>
  </defs>
  <path class="cls-1" d="M500,1000c-19,0-38-7.23-52.47-21.68-16.24-16.23-41.04-20.59-61.76-10.93l-.1.05c-37.03,17.26-81.28,1.17-98.59-35.92-9.7-20.78-31.5-33.36-54.28-31.37h-.13c-2.17.2-4.34.29-6.49.29-37.96,0-70.46-29.18-73.84-67.77-2-22.82-18.18-42.11-40.27-48.03-39.59-10.62-63.13-51.4-52.55-90.93,5.92-22.11-2.66-45.74-21.34-58.87l-.11-.08c-33.51-23.47-41.7-69.83-18.25-103.36l.07-.1c13.08-18.7,13.08-43.85,0-62.58l-.04-.06c-23.48-33.53-15.31-79.91,18.22-103.39,18.78-13.15,27.39-36.81,21.47-58.91-10.6-39.58,12.94-80.36,52.47-90.96l.1-.03c22.04-5.91,38.23-25.21,40.22-48,3.56-40.78,39.64-71.06,80.41-67.5,22.84,1.99,44.64-10.6,54.31-31.33l.04-.09c17.27-37.03,61.51-53.15,98.61-35.87,20.79,9.69,45.59,5.31,61.76-10.86,28.96-28.96,76.05-28.97,104.99-.05l.09.09c16.15,16.13,40.94,20.5,61.67,10.83l.11-.05c37.02-17.26,81.27-1.16,98.58,35.93,9.7,20.79,31.49,33.38,54.3,31.38,40.74-3.57,76.79,26.64,80.43,67.36v.13c2.01,22.78,18.19,42.07,40.28,48,39.59,10.62,63.14,51.4,52.55,90.93-5.94,22.18,2.67,45.84,21.41,58.96,33.54,23.49,41.72,69.86,18.27,103.38-13.14,18.78-13.13,43.95-.02,62.69,23.5,33.57,15.32,79.95-18.2,103.43l-.08.06c-18.7,13.1-27.31,36.76-21.39,58.86l.02.09c10.53,39.5-13,80.24-52.5,90.83l-.11.03c-22.03,5.91-38.22,25.21-40.21,48-3.56,40.79-39.64,71.05-80.39,67.52h-.1c-22.77-1.98-44.56,10.61-54.22,31.33-17.31,37.13-61.57,53.24-98.67,35.95-20.78-9.69-45.58-5.31-61.76,10.86-14.48,14.48-33.5,21.72-52.52,21.72ZM408.74,942.7c19.31,0,38.4,7.5,52.6,21.69,21.36,21.34,56.01,21.34,77.3.05,22-22,55.7-27.95,83.88-14.81,27.35,12.75,59.91.89,72.64-26.41,13.15-28.2,42.78-45.32,73.73-42.62h.1c29.97,2.61,56.51-19.67,59.13-49.67,2.71-30.99,24.7-57.21,54.73-65.27l.11-.03c29.02-7.78,46.35-37.8,38.55-66.89l-.02-.09c-8-30,3.7-62.12,29.14-79.94l.08-.06c24.63-17.25,30.65-51.38,13.38-76.05-17.85-25.5-17.86-59.72-.04-85.18,17.29-24.71,11.26-58.83-13.4-76.11-25.48-17.85-37.19-50-29.15-80.03,7.81-29.17-9.51-59.18-38.6-66.98-30.05-8.06-52.03-34.21-54.79-65.12v-.14c-2.64-30.01-29.2-52.28-59.2-49.65-2.15.19-4.3.28-6.44.28-28.58,0-55.09-16.63-67.32-42.85-12.76-27.35-45.32-39.2-72.62-26.47l-.11.05c-9.94,4.64-20.59,6.89-31.17,6.89-19.31,0-38.4-7.5-52.6-21.69l-.09-.09c-21.27-21.25-55.92-21.24-77.21.05-22,22-55.7,27.95-83.87,14.83-27.36-12.74-59.91-.88-72.64,26.4l-.04.09c-12.2,26.17-38.72,42.81-67.3,42.81-2.13,0-4.27-.09-6.41-.28-30.06-2.63-56.6,19.66-59.22,49.67-2.7,30.97-24.7,57.2-54.73,65.25l-.1.03c-29.03,7.79-46.36,37.8-38.57,66.89,8.06,30.08-3.65,62.23-29.11,80.06-24.7,17.3-30.72,51.4-13.48,76.07l.04.06c17.82,25.45,17.84,59.67.03,85.13l-.07.1c-17.21,24.62-11.22,58.68,13.36,75.97l.12.08c25.47,17.83,37.17,49.99,29.13,80.02-7.8,29.13,9.52,59.14,38.61,66.94,30.08,8.07,52.08,34.28,54.79,65.24,2.63,30.04,29.19,52.31,59.18,49.69h.13c30.87-2.71,60.5,14.4,73.64,42.56,12.76,27.34,45.32,39.19,72.62,26.46l.1-.05c9.95-4.64,20.6-6.89,31.19-6.89Z"/>
</svg>