<?xml version="1.0" encoding="UTF-8"?>
<svg id="Layer_1" data-name="Layer 1" xmlns="http://www.w3.org/2000/svg" viewBox="0 0 1000 1000">
  <defs>
    <style>
      .cls-1 {
        fill: #c8102f;
      }
    </style>
  </defs>
  <path class="cls-1" d="M939.57,700.11h0c9.39,35.06-11.41,71.09-46.46,80.49h-.05c-26.68,7.17-46.04,30.25-48.45,57.77v.02c-3.16,36.15-35.02,62.9-71.17,59.75h-.08c-27.51-2.4-53.58,12.66-65.26,37.69l-.02.03c-15.34,32.89-54.43,47.12-87.33,31.79l-.05-.02c-25.04-11.67-54.7-6.44-74.24,13.09l-.02.02c-25.66,25.66-67.25,25.67-92.92.02l-.06-.06c-19.54-19.52-49.19-24.74-74.22-13.07l-.04.02c-32.89,15.34-71.98,1.11-87.33-31.77l-.03-.05c-11.68-25.03-37.76-40.08-65.27-37.68h-.04c-36.15,3.16-68.02-23.58-71.18-59.73v-.04c-2.41-27.51-21.77-50.58-48.45-57.74l-.07-.02c-35.05-9.4-55.85-45.43-46.46-80.48v-.05c7.16-26.68-3.14-54.99-25.77-70.83l-.03-.02c-29.72-20.81-36.95-61.76-16.16-91.49l.05-.07c15.83-22.63,15.82-52.74-.02-75.36h-.01c-20.82-29.74-13.6-70.72,16.13-91.54l.04-.03c22.63-15.85,32.93-44.15,25.78-70.83v-.05c-9.4-35.05,11.4-71.08,46.44-80.48h.05c26.68-7.17,46.04-30.25,48.45-57.77h0c3.16-36.16,35.03-62.91,71.18-59.75h.04c27.52,2.41,53.6-12.66,65.28-37.69l.02-.04c15.33-32.88,54.42-47.12,87.31-31.8l.06.03c25.04,11.66,54.69,6.43,74.22-13.1l.03-.03c25.66-25.66,67.25-25.67,92.92-.02l.06.06c19.54,19.52,49.19,24.74,74.22,13.07l.03-.02c32.89-15.34,71.99-1.11,87.33,31.78l.03.06c11.68,25.04,37.77,40.1,65.29,37.68h0c36.16-3.17,68.04,23.57,71.21,59.73v.02c2.41,27.51,21.77,50.58,48.45,57.74l.07.02c35.05,9.4,55.84,45.42,46.46,80.47l-.02.09c-7.14,26.68,3.16,54.98,25.79,70.83h.02c29.72,20.83,36.95,61.79,16.15,91.52l-.03.04c-15.83,22.63-15.83,52.74,0,75.36l.03.05c20.81,29.73,13.59,70.7-16.14,91.52l-.05.03c-22.63,15.85-32.93,44.15-25.78,70.84h.07Z"/>
</svg>